<svg width="1073" height="251" viewBox="0 0 1073 251" fill="none" xmlns="http://www.w3.org/2000/svg">
<path d="M0.824 248.08C0.274667 248.08 0 247.737 0 247.05L0.206 105.528C0.206 104.979 0.480666 104.704 1.03 104.704H67.156C67.7053 104.704 67.98 105.047 67.98 105.734V128.806C67.98 129.355 67.7053 129.63 67.156 129.63H24.926V161.766H67.156C67.7053 161.766 67.98 162.041 67.98 162.59L68.186 185.868C68.186 186.417 67.9113 186.692 67.362 186.692H24.926V222.742H67.362C67.9113 222.742 68.186 223.085 68.186 223.772V247.256C68.186 247.805 67.9113 248.08 67.362 248.08H0.824Z" fill="black"/>
<path d="M87.3279 248.08C86.7786 248.08 86.5039 247.737 86.5039 247.05L86.9159 105.528C86.9159 104.979 87.1906 104.704 87.7399 104.704H112.872C113.421 104.704 113.902 104.979 114.314 105.528L133.06 132.72L151.806 105.528C152.218 104.979 152.699 104.704 153.248 104.704H178.586C179.135 104.704 179.41 104.979 179.41 105.528L179.822 247.05C179.822 247.737 179.547 248.08 178.998 248.08H155.72C155.171 248.08 154.896 247.737 154.896 247.05L154.69 141.99L133.06 173.302L111.636 141.99L111.43 247.05C111.43 247.737 111.155 248.08 110.606 248.08H87.3279Z" fill="black"/>
<path d="M198.178 248.08C197.492 248.08 197.148 247.737 197.148 247.05L197.56 105.528C197.56 104.979 197.835 104.704 198.384 104.704H237.936C250.571 104.704 260.528 108.549 267.806 116.24C275.222 123.931 278.93 134.368 278.93 147.552C278.93 157.303 277.008 165.749 273.162 172.89C269.317 180.031 264.304 185.525 258.124 189.37C251.944 193.215 245.215 195.138 237.936 195.138H222.28V247.05C222.28 247.737 221.937 248.08 221.25 248.08H198.178ZM222.28 170.212H237.936C242.331 170.212 246.108 168.152 249.266 164.032C252.562 159.775 254.21 154.281 254.21 147.552C254.21 142.196 252.768 137.801 249.884 134.368C247 130.935 243.018 129.218 237.936 129.218L222.28 129.424V170.212Z" fill="black"/>
<path d="M329.005 250.14C321.589 250.14 314.791 248.286 308.611 244.578C302.568 240.733 297.693 235.72 293.985 229.54C290.277 223.223 288.423 216.287 288.423 208.734L288.629 143.432C288.629 135.879 290.414 129.012 293.985 122.832C297.693 116.652 302.637 111.708 308.817 108C314.997 104.292 321.726 102.438 329.005 102.438C336.421 102.438 343.15 104.292 349.193 108C355.235 111.708 360.042 116.652 363.613 122.832C367.321 129.012 369.175 135.879 369.175 143.432L369.381 208.734C369.381 216.287 367.527 223.223 363.819 229.54C360.248 235.72 355.373 240.733 349.193 244.578C343.15 248.286 336.421 250.14 329.005 250.14ZM329.005 225.214C333.125 225.214 336.695 223.566 339.717 220.27C342.875 216.837 344.455 212.991 344.455 208.734L344.249 143.432C344.249 138.9 342.807 135.055 339.923 131.896C337.039 128.737 333.399 127.158 329.005 127.158C324.747 127.158 321.108 128.737 318.087 131.896C315.065 134.917 313.555 138.763 313.555 143.432V208.734C313.555 213.266 315.065 217.18 318.087 220.476C321.108 223.635 324.747 225.214 329.005 225.214Z" fill="black"/>
<path d="M400.374 248.08C399.825 248.08 399.481 247.737 399.344 247.05L375.036 105.528C374.899 104.979 375.105 104.704 375.654 104.704H398.726C399.275 104.704 399.619 104.979 399.756 105.528L412.94 198.64L426.536 105.528C426.673 104.979 427.085 104.704 427.772 104.704H446.312C446.861 104.704 447.205 104.979 447.342 105.528L460.732 198.64L474.122 105.528C474.259 104.979 474.603 104.704 475.152 104.704H498.018C498.705 104.704 498.979 104.979 498.842 105.528L474.328 247.05C474.191 247.325 473.985 247.599 473.71 247.874C473.435 248.011 473.298 248.08 473.298 248.08H448.372C447.96 248.08 447.617 247.737 447.342 247.05L436.836 173.096L426.33 247.05C426.193 247.737 425.849 248.08 425.3 248.08H400.374Z" fill="black"/>
<path d="M511.801 248.08C511.251 248.08 510.977 247.737 510.977 247.05L511.183 105.528C511.183 104.979 511.457 104.704 512.007 104.704H578.133C578.682 104.704 578.957 105.047 578.957 105.734V128.806C578.957 129.355 578.682 129.63 578.133 129.63H535.903V161.766H578.133C578.682 161.766 578.957 162.041 578.957 162.59L579.163 185.868C579.163 186.417 578.888 186.692 578.339 186.692H535.903V222.742H578.339C578.888 222.742 579.163 223.085 579.163 223.772V247.256C579.163 247.805 578.888 248.08 578.339 248.08H511.801Z" fill="black"/>
<path d="M598.304 248.08C597.755 248.08 597.48 247.737 597.48 247.05L597.892 105.528C597.892 104.979 598.167 104.704 598.716 104.704H640.328C647.744 104.704 654.542 106.558 660.722 110.266C667.04 113.837 672.052 118.712 675.76 124.892C679.468 130.935 681.322 137.801 681.322 145.492C681.322 150.573 680.567 155.174 679.056 159.294C677.546 163.277 675.76 166.71 673.701 169.594C671.64 172.341 669.786 174.401 668.138 175.774C675.554 184.014 679.262 193.696 679.262 204.82L679.468 247.05C679.468 247.737 679.125 248.08 678.438 248.08H655.16C654.611 248.08 654.336 247.874 654.336 247.462V204.82C654.336 199.876 652.551 195.619 648.98 192.048C645.547 188.34 641.29 186.486 636.208 186.486H622.612L622.406 247.05C622.406 247.737 622.132 248.08 621.582 248.08H598.304ZM622.612 161.766H640.328C644.586 161.766 648.362 160.187 651.658 157.028C654.954 153.869 656.602 150.024 656.602 145.492C656.602 141.097 654.954 137.321 651.658 134.162C648.5 131.003 644.723 129.424 640.328 129.424H622.612V161.766Z" fill="black"/>
<path d="M697.683 248.08C697.134 248.08 696.859 247.737 696.859 247.05L697.271 105.528C697.271 104.979 697.546 104.704 698.095 104.704H723.227C723.777 104.704 724.257 104.979 724.669 105.528L743.415 132.72L762.161 105.528C762.573 104.979 763.054 104.704 763.603 104.704H788.941C789.491 104.704 789.765 104.979 789.765 105.528L790.177 247.05C790.177 247.737 789.903 248.08 789.353 248.08H766.075C765.526 248.08 765.251 247.737 765.251 247.05L765.045 141.99L743.415 173.302L721.991 141.99L721.785 247.05C721.785 247.737 721.511 248.08 720.961 248.08H697.683Z" fill="black"/>
<path d="M808.328 248.08C807.779 248.08 807.504 247.737 807.504 247.05L807.71 105.528C807.71 104.979 807.985 104.704 808.534 104.704H874.66C875.209 104.704 875.484 105.047 875.484 105.734V128.806C875.484 129.355 875.209 129.63 874.66 129.63H832.43V161.766H874.66C875.209 161.766 875.484 162.041 875.484 162.59L875.69 185.868C875.69 186.417 875.415 186.692 874.866 186.692H832.43V222.742H874.866C875.415 222.742 875.69 223.085 875.69 223.772V247.256C875.69 247.805 875.415 248.08 874.866 248.08H808.328Z" fill="black"/>
<path d="M895.862 248.08C894.763 248.08 894.214 247.599 894.214 246.638L894.008 106.352C894.008 105.253 894.557 104.704 895.656 104.704H914.196L949.01 185.868L947.98 106.352C947.98 105.253 948.598 104.704 949.834 104.704H970.228C971.052 104.704 971.464 105.253 971.464 106.352L971.67 246.844C971.67 247.668 971.326 248.08 970.64 248.08H952.512L916.874 172.272L918.316 246.432C918.316 247.531 917.698 248.08 916.462 248.08H895.862Z" fill="black"/>
<path d="M1010.16 248.08C1009.62 248.08 1009.34 247.737 1009.34 247.05V129.63H982.56C981.874 129.63 981.53 129.287 981.53 128.6L981.736 105.528C981.736 104.979 982.011 104.704 982.56 104.704H1060.84C1061.53 104.704 1061.87 104.979 1061.87 105.528V128.6C1061.87 129.287 1061.6 129.63 1061.05 129.63H1034.06L1034.27 247.05C1034.27 247.737 1033.99 248.08 1033.44 248.08H1010.16Z" fill="black"/>
<path d="M783.2 103.08V19.8H770.96V0H816.08V19.8H803.84V103.08H783.2Z" fill="#FF0000"/>
<path d="M817.938 103.08L827.898 0H862.818L872.658 103.08H853.098L851.658 86.4H839.178L837.978 103.08H817.938ZM840.738 69.96H850.098L845.538 17.52H844.578L840.738 69.96Z" fill="#FF0000"/>
<path d="M877.74 103.08V0H898.38V85.56H919.62V103.08H877.74Z" fill="#FF0000"/>
<path d="M924.236 103.08V0H965.516V19.92H945.236V39.96H964.676V59.4H945.236V83.04H966.836V103.08H924.236Z" fill="#FF0000"/>
<path d="M972.489 103.08V0H993.729L1003.21 49.32V0H1023.13V103.08H1002.97L992.649 51.48V103.08H972.489Z" fill="#FF0000"/>
<path d="M1039.93 103.08V19.8H1027.69V0H1072.81V19.8H1060.57V103.08H1039.93Z" fill="#FF0000"/>
</svg>
