<svg width="511" height="186" viewBox="0 0 511 186" fill="none" xmlns="http://www.w3.org/2000/svg">
<path d="M3.96 138C3.72 138 3.6 137.85 3.6 137.55L3.69 75.72C3.69 75.48 3.81 75.36 4.05 75.36H32.94C33.18 75.36 33.3 75.51 33.3 75.81V85.89C33.3 86.13 33.18 86.25 32.94 86.25H14.49V100.29H32.94C33.18 100.29 33.3 100.41 33.3 100.65L33.39 110.82C33.39 111.06 33.27 111.18 33.03 111.18H14.49V126.93H33.03C33.27 126.93 33.39 127.08 33.39 127.38V137.64C33.39 137.88 33.27 138 33.03 138H3.96ZM41.753 138C41.513 138 41.393 137.85 41.393 137.55L41.573 75.72C41.573 75.48 41.693 75.36 41.933 75.36H52.913C53.153 75.36 53.363 75.48 53.543 75.72L61.733 87.6L69.923 75.72C70.103 75.48 70.313 75.36 70.553 75.36H81.623C81.863 75.36 81.983 75.48 81.983 75.72L82.163 137.55C82.163 137.85 82.043 138 81.803 138H71.633C71.393 138 71.273 137.85 71.273 137.55L71.183 91.65L61.733 105.33L52.373 91.65L52.283 137.55C52.283 137.85 52.163 138 51.923 138H41.753ZM90.1828 138C89.8828 138 89.7328 137.85 89.7328 137.55L89.9128 75.72C89.9128 75.48 90.0328 75.36 90.2728 75.36H107.553C113.073 75.36 117.423 77.04 120.603 80.4C123.843 83.76 125.463 88.32 125.463 94.08C125.463 98.34 124.623 102.03 122.943 105.15C121.263 108.27 119.073 110.67 116.373 112.35C113.673 114.03 110.733 114.87 107.553 114.87H100.713V137.55C100.713 137.85 100.563 138 100.263 138H90.1828ZM100.713 103.98H107.553C109.473 103.98 111.123 103.08 112.503 101.28C113.943 99.42 114.663 97.02 114.663 94.08C114.663 91.74 114.033 89.82 112.773 88.32C111.513 86.82 109.773 86.07 107.553 86.07L100.713 86.16V103.98ZM147.34 138.9C144.1 138.9 141.13 138.09 138.43 136.47C135.79 134.79 133.66 132.6 132.04 129.9C130.42 127.14 129.61 124.11 129.61 120.81L129.7 92.28C129.7 88.98 130.48 85.98 132.04 83.28C133.66 80.58 135.82 78.42 138.52 76.8C141.22 75.18 144.16 74.37 147.34 74.37C150.58 74.37 153.52 75.18 156.16 76.8C158.8 78.42 160.9 80.58 162.46 83.28C164.08 85.98 164.89 88.98 164.89 92.28L164.98 120.81C164.98 124.11 164.17 127.14 162.55 129.9C160.99 132.6 158.86 134.79 156.16 136.47C153.52 138.09 150.58 138.9 147.34 138.9ZM147.34 128.01C149.14 128.01 150.7 127.29 152.02 125.85C153.4 124.35 154.09 122.67 154.09 120.81L154 92.28C154 90.3 153.37 88.62 152.11 87.24C150.85 85.86 149.26 85.17 147.34 85.17C145.48 85.17 143.89 85.86 142.57 87.24C141.25 88.56 140.59 90.24 140.59 92.28V120.81C140.59 122.79 141.25 124.5 142.57 125.94C143.89 127.32 145.48 128.01 147.34 128.01ZM178.521 138C178.281 138 178.131 137.85 178.071 137.55L167.451 75.72C167.391 75.48 167.481 75.36 167.721 75.36H177.801C178.041 75.36 178.191 75.48 178.251 75.72L184.011 116.4L189.951 75.72C190.011 75.48 190.191 75.36 190.491 75.36H198.591C198.831 75.36 198.981 75.48 199.041 75.72L204.891 116.4L210.741 75.72C210.801 75.48 210.951 75.36 211.191 75.36H221.181C221.481 75.36 221.601 75.48 221.541 75.72L210.831 137.55C210.771 137.67 210.681 137.79 210.561 137.91C210.441 137.97 210.381 138 210.381 138H199.491C199.311 138 199.161 137.85 199.041 137.55L194.451 105.24L189.861 137.55C189.801 137.85 189.651 138 189.411 138H178.521ZM227.202 138C226.962 138 226.842 137.85 226.842 137.55L226.932 75.72C226.932 75.48 227.052 75.36 227.292 75.36H256.182C256.422 75.36 256.542 75.51 256.542 75.81V85.89C256.542 86.13 256.422 86.25 256.182 86.25H237.732V100.29H256.182C256.422 100.29 256.542 100.41 256.542 100.65L256.632 110.82C256.632 111.06 256.512 111.18 256.272 111.18H237.732V126.93H256.272C256.512 126.93 256.632 127.08 256.632 127.38V137.64C256.632 137.88 256.512 138 256.272 138H227.202ZM264.995 138C264.755 138 264.635 137.85 264.635 137.55L264.815 75.72C264.815 75.48 264.935 75.36 265.175 75.36H283.355C286.595 75.36 289.565 76.17 292.265 77.79C295.025 79.35 297.215 81.48 298.835 84.18C300.455 86.82 301.265 89.82 301.265 93.18C301.265 95.4 300.935 97.41 300.275 99.21C299.615 100.95 298.835 102.45 297.935 103.71C297.035 104.91 296.225 105.81 295.505 106.41C298.745 110.01 300.365 114.24 300.365 119.1L300.455 137.55C300.455 137.85 300.305 138 300.005 138H289.835C289.595 138 289.475 137.91 289.475 137.73V119.1C289.475 116.94 288.695 115.08 287.135 113.52C285.635 111.9 283.775 111.09 281.555 111.09H275.615L275.525 137.55C275.525 137.85 275.405 138 275.165 138H264.995ZM275.615 100.29H283.355C285.215 100.29 286.865 99.6 288.305 98.22C289.745 96.84 290.465 95.16 290.465 93.18C290.465 91.26 289.745 89.61 288.305 88.23C286.925 86.85 285.275 86.16 283.355 86.16H275.615V100.29ZM308.413 138C308.173 138 308.053 137.85 308.053 137.55L308.233 75.72C308.233 75.48 308.353 75.36 308.593 75.36H319.573C319.813 75.36 320.023 75.48 320.203 75.72L328.393 87.6L336.583 75.72C336.763 75.48 336.973 75.36 337.213 75.36H348.283C348.523 75.36 348.643 75.48 348.643 75.72L348.823 137.55C348.823 137.85 348.703 138 348.463 138H338.293C338.053 138 337.933 137.85 337.933 137.55L337.843 91.65L328.393 105.33L319.033 91.65L318.943 137.55C318.943 137.85 318.823 138 318.583 138H308.413ZM356.753 138C356.513 138 356.393 137.85 356.393 137.55L356.483 75.72C356.483 75.48 356.603 75.36 356.843 75.36H385.733C385.973 75.36 386.093 75.51 386.093 75.81V85.89C386.093 86.13 385.973 86.25 385.733 86.25H367.283V100.29H385.733C385.973 100.29 386.093 100.41 386.093 100.65L386.183 110.82C386.183 111.06 386.063 111.18 385.823 111.18H367.283V126.93H385.823C386.063 126.93 386.183 127.08 386.183 127.38V137.64C386.183 137.88 386.063 138 385.823 138H356.753ZM394.996 138C394.516 138 394.276 137.79 394.276 137.37L394.186 76.08C394.186 75.6 394.426 75.36 394.906 75.36H403.006L418.216 110.82L417.766 76.08C417.766 75.6 418.036 75.36 418.576 75.36H427.486C427.846 75.36 428.026 75.6 428.026 76.08L428.116 137.46C428.116 137.82 427.966 138 427.666 138H419.746L404.176 104.88L404.806 137.28C404.806 137.76 404.536 138 403.996 138H394.996ZM444.934 138C444.694 138 444.574 137.85 444.574 137.55V86.25H432.874C432.574 86.25 432.424 86.1 432.424 85.8L432.514 75.72C432.514 75.48 432.634 75.36 432.874 75.36H467.074C467.374 75.36 467.524 75.48 467.524 75.72V85.8C467.524 86.1 467.404 86.25 467.164 86.25H455.374L455.464 137.55C455.464 137.85 455.344 138 455.104 138H444.934Z" fill="black"/>
<path d="M10.5117 168.029H5.30859L5.27344 165.305H10.1074C10.834 165.305 11.4785 165.141 12.041 164.812C12.6035 164.484 13.043 164.016 13.3594 163.406C13.6875 162.785 13.8516 162.047 13.8516 161.191C13.8516 160.254 13.7109 159.492 13.4297 158.906C13.1602 158.309 12.7441 157.875 12.1816 157.605C11.6309 157.324 10.9277 157.184 10.0723 157.184H5.99414V180H2.75977V154.406H10.0723C11.1738 154.406 12.1582 154.541 13.0254 154.811C13.8926 155.068 14.625 155.479 15.2227 156.041C15.832 156.592 16.2949 157.295 16.6113 158.15C16.9277 159.006 17.0859 160.031 17.0859 161.227C17.0859 162.281 16.8457 163.236 16.3652 164.092C15.8965 164.936 15.2402 165.627 14.3965 166.166C13.5527 166.705 12.5801 167.051 11.4785 167.203L10.5117 168.029ZM10.3887 180H3.97266L5.85352 177.24H10.3887C11.2324 177.24 11.9473 177.053 12.5332 176.678C13.1191 176.303 13.5645 175.775 13.8691 175.096C14.1855 174.404 14.3438 173.59 14.3438 172.652C14.3438 171.703 14.2148 170.883 13.957 170.191C13.6992 169.5 13.2891 168.967 12.7266 168.592C12.1641 168.217 11.4258 168.029 10.5117 168.029H6.3457L6.38086 165.305H12.0059L12.7266 166.289C13.7812 166.395 14.666 166.746 15.3809 167.344C16.1074 167.93 16.6523 168.68 17.0156 169.594C17.3906 170.508 17.5781 171.516 17.5781 172.617C17.5781 174.211 17.2793 175.559 16.6816 176.66C16.0957 177.75 15.2637 178.582 14.1855 179.156C13.1074 179.719 11.8418 180 10.3887 180ZM30.709 156.674L23.7129 180H20.4082L28.6523 154.406H30.7266L30.709 156.674ZM36.3691 180L29.373 156.674L29.3379 154.406H31.4297L39.6738 180H36.3691ZM36.3691 170.525V173.303H24.0293V170.525H36.3691ZM59.9238 154.406V180H56.6719L46.4238 160.26V180H43.1895V154.406H46.4238L56.7246 174.199V154.406H59.9238ZM78.3281 171.861H81.5625C81.4805 173.619 81.123 175.137 80.4902 176.414C79.8691 177.68 78.9609 178.652 77.7656 179.332C76.582 180.012 75.0996 180.352 73.3184 180.352C72.041 180.352 70.8867 180.1 69.8555 179.596C68.8242 179.092 67.9395 178.371 67.2012 177.434C66.4746 176.484 65.918 175.348 65.5312 174.023C65.1445 172.699 64.9512 171.211 64.9512 169.559V164.83C64.9512 163.189 65.1445 161.707 65.5312 160.383C65.9297 159.059 66.498 157.928 67.2363 156.99C67.9863 156.041 68.8945 155.314 69.9609 154.811C71.0391 154.307 72.2578 154.055 73.6172 154.055C75.2812 154.055 76.6875 154.389 77.8359 155.057C78.9961 155.713 79.8867 156.68 80.5078 157.957C81.1406 159.223 81.4922 160.775 81.5625 162.615H78.3281C78.2461 161.268 78.0352 160.172 77.6953 159.328C77.3555 158.473 76.8516 157.846 76.1836 157.447C75.5273 157.037 74.6719 156.832 73.6172 156.832C72.6797 156.832 71.8652 157.02 71.1738 157.395C70.4941 157.77 69.9316 158.309 69.4863 159.012C69.0527 159.703 68.7246 160.541 68.502 161.525C68.291 162.498 68.1855 163.588 68.1855 164.795V169.559C68.1855 170.684 68.2734 171.732 68.4492 172.705C68.6367 173.678 68.9297 174.533 69.3281 175.271C69.7383 175.998 70.2715 176.566 70.9277 176.977C71.584 177.387 72.3809 177.592 73.3184 177.592C74.502 177.592 75.4395 177.398 76.1309 177.012C76.8223 176.625 77.332 176.01 77.6602 175.166C78 174.322 78.2227 173.221 78.3281 171.861ZM102.586 164.988V169.436C102.586 171.24 102.387 172.828 101.988 174.199C101.602 175.559 101.033 176.695 100.283 177.609C99.5332 178.523 98.6309 179.209 97.5762 179.666C96.5215 180.123 95.332 180.352 94.0078 180.352C92.7305 180.352 91.5645 180.123 90.5098 179.666C89.4551 179.209 88.5469 178.523 87.7852 177.609C87.0234 176.695 86.4316 175.559 86.0098 174.199C85.5996 172.828 85.3945 171.24 85.3945 169.436V164.988C85.3945 163.184 85.5996 161.602 86.0098 160.242C86.4199 158.871 87.0059 157.729 87.7676 156.814C88.5293 155.9 89.4375 155.215 90.4922 154.758C91.5469 154.289 92.7129 154.055 93.9902 154.055C95.3145 154.055 96.5039 154.289 97.5586 154.758C98.625 155.215 99.5273 155.9 100.266 156.814C101.016 157.729 101.59 158.871 101.988 160.242C102.387 161.602 102.586 163.184 102.586 164.988ZM99.3867 169.436V164.953C99.3867 163.547 99.2695 162.34 99.0352 161.332C98.8008 160.312 98.4551 159.48 97.998 158.836C97.541 158.191 96.9785 157.717 96.3105 157.412C95.6426 157.096 94.8691 156.938 93.9902 156.938C93.1582 156.938 92.4082 157.096 91.7402 157.412C91.084 157.717 90.5215 158.191 90.0527 158.836C89.584 159.48 89.2207 160.312 88.9629 161.332C88.7168 162.34 88.5938 163.547 88.5938 164.953V169.436C88.5938 170.854 88.7168 172.072 88.9629 173.092C89.2207 174.1 89.584 174.932 90.0527 175.588C90.5332 176.232 91.1074 176.713 91.7754 177.029C92.4434 177.334 93.1875 177.486 94.0078 177.486C94.8867 177.486 95.6602 177.334 96.3281 177.029C97.0078 176.713 97.5703 176.232 98.0156 175.588C98.4727 174.932 98.8125 174.1 99.0352 173.092C99.2695 172.072 99.3867 170.854 99.3867 169.436ZM121.658 180H117.299L117.334 177.24H121.658C123.193 177.24 124.441 176.947 125.402 176.361C126.363 175.764 127.072 174.885 127.529 173.725C127.986 172.553 128.215 171.105 128.215 169.383V165.006C128.215 163.646 128.086 162.475 127.828 161.49C127.57 160.506 127.184 159.697 126.668 159.064C126.152 158.432 125.502 157.963 124.717 157.658C123.932 157.342 123.012 157.184 121.957 157.184H117.211V154.406H121.957C123.398 154.406 124.699 154.635 125.859 155.092C127.02 155.537 128.016 156.211 128.848 157.113C129.68 158.004 130.312 159.111 130.746 160.436C131.191 161.76 131.414 163.295 131.414 165.041V169.383C131.414 171.129 131.191 172.664 130.746 173.988C130.312 175.312 129.674 176.42 128.83 177.311C127.986 178.201 126.961 178.875 125.754 179.332C124.559 179.777 123.193 180 121.658 180ZM119.092 154.406V180H115.857V154.406H119.092ZM150.188 177.24V180H139.078V177.24H150.188ZM139.658 154.406V180H136.424V154.406H139.658ZM148.693 165.41V168.17H139.078V165.41H148.693ZM150.012 154.406V157.184H139.078V154.406H150.012ZM170.104 154.406V180H166.904V154.406H170.104ZM176.836 154.406V157.184H160.189V154.406H176.836ZM187.506 156.674L180.51 180H177.205L185.449 154.406H187.523L187.506 156.674ZM193.166 180L186.17 156.674L186.135 154.406H188.227L196.471 180H193.166ZM193.166 170.525V173.303H180.826V170.525H193.166ZM213.258 177.24V180H202.641V177.24H213.258ZM203.221 154.406V180H199.986V154.406H203.221ZM230.871 177.24V180H219.762V177.24H230.871ZM220.342 154.406V180H217.107V154.406H220.342ZM229.377 165.41V168.17H219.762V165.41H229.377ZM230.695 154.406V157.184H219.762V154.406H230.695ZM251.736 154.406V180H248.484L238.236 160.26V180H235.002V154.406H238.236L248.537 174.199V154.406H251.736ZM265.025 154.406V180H261.826V154.406H265.025ZM271.758 154.406V157.184H255.111V154.406H271.758ZM291.691 164.988V169.436C291.691 171.24 291.492 172.828 291.094 174.199C290.707 175.559 290.139 176.695 289.389 177.609C288.639 178.523 287.736 179.209 286.682 179.666C285.627 180.123 284.438 180.352 283.113 180.352C281.836 180.352 280.67 180.123 279.615 179.666C278.561 179.209 277.652 178.523 276.891 177.609C276.129 176.695 275.537 175.559 275.115 174.199C274.705 172.828 274.5 171.24 274.5 169.436V164.988C274.5 163.184 274.705 161.602 275.115 160.242C275.525 158.871 276.111 157.729 276.873 156.814C277.635 155.9 278.543 155.215 279.598 154.758C280.652 154.289 281.818 154.055 283.096 154.055C284.42 154.055 285.609 154.289 286.664 154.758C287.73 155.215 288.633 155.9 289.371 156.814C290.121 157.729 290.695 158.871 291.094 160.242C291.492 161.602 291.691 163.184 291.691 164.988ZM288.492 169.436V164.953C288.492 163.547 288.375 162.34 288.141 161.332C287.906 160.312 287.561 159.48 287.104 158.836C286.646 158.191 286.084 157.717 285.416 157.412C284.748 157.096 283.975 156.938 283.096 156.938C282.264 156.938 281.514 157.096 280.846 157.412C280.189 157.717 279.627 158.191 279.158 158.836C278.689 159.48 278.326 160.312 278.068 161.332C277.822 162.34 277.699 163.547 277.699 164.953V169.436C277.699 170.854 277.822 172.072 278.068 173.092C278.326 174.1 278.689 174.932 279.158 175.588C279.639 176.232 280.213 176.713 280.881 177.029C281.549 177.334 282.293 177.486 283.113 177.486C283.992 177.486 284.766 177.334 285.434 177.029C286.113 176.713 286.676 176.232 287.121 175.588C287.578 174.932 287.918 174.1 288.141 173.092C288.375 172.072 288.492 170.854 288.492 169.436ZM307.898 173.531C307.898 172.934 307.828 172.406 307.688 171.949C307.547 171.48 307.301 171.059 306.949 170.684C306.598 170.309 306.105 169.951 305.473 169.611C304.84 169.271 304.037 168.926 303.064 168.574C302.01 168.199 301.055 167.783 300.199 167.326C299.344 166.857 298.611 166.324 298.002 165.727C297.404 165.129 296.941 164.443 296.613 163.67C296.285 162.896 296.121 162.012 296.121 161.016C296.121 160.02 296.291 159.1 296.631 158.256C296.982 157.412 297.475 156.68 298.107 156.059C298.752 155.426 299.525 154.934 300.428 154.582C301.33 154.23 302.338 154.055 303.451 154.055C305.115 154.055 306.516 154.424 307.652 155.162C308.801 155.889 309.668 156.844 310.254 158.027C310.84 159.199 311.133 160.453 311.133 161.789H307.898C307.898 160.828 307.74 159.979 307.424 159.24C307.119 158.49 306.639 157.904 305.982 157.482C305.338 157.049 304.494 156.832 303.451 156.832C302.514 156.832 301.74 157.014 301.131 157.377C300.533 157.74 300.088 158.232 299.795 158.854C299.514 159.475 299.373 160.184 299.373 160.98C299.373 161.52 299.467 162.012 299.654 162.457C299.842 162.891 300.129 163.295 300.516 163.67C300.914 164.045 301.406 164.391 301.992 164.707C302.59 165.023 303.293 165.328 304.102 165.621C305.355 166.031 306.428 166.488 307.318 166.992C308.209 167.496 308.936 168.064 309.498 168.697C310.061 169.318 310.471 170.027 310.729 170.824C310.998 171.609 311.133 172.5 311.133 173.496C311.133 174.539 310.957 175.482 310.605 176.326C310.266 177.17 309.768 177.891 309.111 178.488C308.455 179.086 307.664 179.549 306.738 179.877C305.812 180.193 304.77 180.352 303.609 180.352C302.602 180.352 301.611 180.188 300.639 179.859C299.678 179.531 298.805 179.039 298.02 178.383C297.234 177.727 296.607 176.918 296.139 175.957C295.67 174.984 295.436 173.859 295.436 172.582H298.67C298.67 173.461 298.799 174.217 299.057 174.85C299.314 175.471 299.672 175.986 300.129 176.396C300.586 176.807 301.107 177.111 301.693 177.311C302.291 177.498 302.93 177.592 303.609 177.592C304.547 177.592 305.332 177.428 305.965 177.1C306.609 176.771 307.09 176.303 307.406 175.693C307.734 175.084 307.898 174.363 307.898 173.531Z" fill="#A52A2A"/>
<path d="M309.156 75V30.5625H302.625V20H326.688V30.5625H320.156V75H309.156ZM326.798 75L332.11 20H350.766L355.985 75H345.579L344.798 66.125H338.173L337.485 75H326.798ZM338.954 57.3438H343.954L341.548 29.375H341.048L338.954 57.3438ZM358.72 75V20H369.72V65.625H381.033V75H358.72ZM383.518 75V20H405.518V30.625H394.705V41.3438H405.08V51.6875H394.705V64.2812H406.236V75H383.518ZM409.253 75V20H420.565L425.628 46.3438V20H436.253V75H425.503L420.003 47.5V75H409.253ZM445.206 75V30.5625H438.675V20H462.738V30.5625H456.206V75H445.206Z" fill="#FF0000"/>
</svg>
