<svg width="189" height="104" viewBox="0 0 189 104" fill="none" xmlns="http://www.w3.org/2000/svg">
<g clip-path="url(#clip0_101_8)">
<path d="M11.408 58C11.3227 58 11.28 57.9467 11.28 57.84L11.312 35.856C11.312 35.7707 11.3547 35.728 11.44 35.728H21.712C21.7973 35.728 21.84 35.7813 21.84 35.888V39.472C21.84 39.5573 21.7973 39.6 21.712 39.6H15.152V44.592H21.712C21.7973 44.592 21.84 44.6347 21.84 44.72L21.872 48.336C21.872 48.4213 21.8293 48.464 21.744 48.464H15.152V54.064H21.744C21.8293 54.064 21.872 54.1173 21.872 54.224V57.872C21.872 57.9573 21.8293 58 21.744 58H11.408ZM24.8455 58C24.7602 58 24.7175 57.9467 24.7175 57.84L24.7815 35.856C24.7815 35.7707 24.8242 35.728 24.9095 35.728H28.8135C28.8988 35.728 28.9735 35.7707 29.0375 35.856L31.9495 40.08L34.8615 35.856C34.9255 35.7707 35.0002 35.728 35.0855 35.728H39.0215C39.1068 35.728 39.1495 35.7707 39.1495 35.856L39.2135 57.84C39.2135 57.9467 39.1708 58 39.0855 58H35.4695C35.3842 58 35.3415 57.9467 35.3415 57.84L35.3095 41.52L31.9495 46.384L28.6215 41.52L28.5895 57.84C28.5895 57.9467 28.5468 58 28.4615 58H24.8455ZM42.065 58C41.9583 58 41.905 57.9467 41.905 57.84L41.969 35.856C41.969 35.7707 42.0117 35.728 42.097 35.728H48.241C50.2037 35.728 51.7503 36.3253 52.881 37.52C54.033 38.7147 54.609 40.336 54.609 42.384C54.609 43.8987 54.3103 45.2107 53.713 46.32C53.1157 47.4293 52.337 48.2827 51.377 48.88C50.417 49.4773 49.3717 49.776 48.241 49.776H45.809V57.84C45.809 57.9467 45.7557 58 45.649 58H42.065ZM45.809 45.904H48.241C48.9237 45.904 49.5103 45.584 50.001 44.944C50.513 44.2827 50.769 43.4293 50.769 42.384C50.769 41.552 50.545 40.8693 50.097 40.336C49.649 39.8027 49.0303 39.536 48.241 39.536L45.809 39.568V45.904ZM62.3875 58.32C61.2355 58.32 60.1795 58.032 59.2195 57.456C58.2808 56.8587 57.5235 56.08 56.9475 55.12C56.3715 54.1387 56.0835 53.0613 56.0835 51.888L56.1155 41.744C56.1155 40.5707 56.3928 39.504 56.9475 38.544C57.5235 37.584 58.2915 36.816 59.2515 36.24C60.2115 35.664 61.2568 35.376 62.3875 35.376C63.5395 35.376 64.5848 35.664 65.5235 36.24C66.4622 36.816 67.2088 37.584 67.7635 38.544C68.3395 39.504 68.6275 40.5707 68.6275 41.744L68.6595 51.888C68.6595 53.0613 68.3715 54.1387 67.7955 55.12C67.2408 56.08 66.4835 56.8587 65.5235 57.456C64.5848 58.032 63.5395 58.32 62.3875 58.32ZM62.3875 54.448C63.0275 54.448 63.5822 54.192 64.0515 53.68C64.5422 53.1467 64.7875 52.5493 64.7875 51.888L64.7555 41.744C64.7555 41.04 64.5315 40.4427 64.0835 39.952C63.6355 39.4613 63.0702 39.216 62.3875 39.216C61.7262 39.216 61.1608 39.4613 60.6915 39.952C60.2222 40.4213 59.9875 41.0187 59.9875 41.744V51.888C59.9875 52.592 60.2222 53.2 60.6915 53.712C61.1608 54.2027 61.7262 54.448 62.3875 54.448ZM73.474 58C73.3887 58 73.3353 57.9467 73.314 57.84L69.538 35.856C69.5167 35.7707 69.5487 35.728 69.634 35.728H73.218C73.3033 35.728 73.3567 35.7707 73.378 35.856L75.426 50.32L77.538 35.856C77.5593 35.7707 77.6233 35.728 77.73 35.728H80.61C80.6953 35.728 80.7487 35.7707 80.77 35.856L82.85 50.32L84.93 35.856C84.9513 35.7707 85.0047 35.728 85.09 35.728H88.642C88.7487 35.728 88.7913 35.7707 88.77 35.856L84.962 57.84C84.9407 57.8827 84.9087 57.9253 84.866 57.968C84.8233 57.9893 84.802 58 84.802 58H80.93C80.866 58 80.8127 57.9467 80.77 57.84L79.138 46.352L77.506 57.84C77.4847 57.9467 77.4313 58 77.346 58H73.474ZM90.783 58C90.6977 58 90.655 57.9467 90.655 57.84L90.687 35.856C90.687 35.7707 90.7297 35.728 90.815 35.728H101.087C101.172 35.728 101.215 35.7813 101.215 35.888V39.472C101.215 39.5573 101.172 39.6 101.087 39.6H94.527V44.592H101.087C101.172 44.592 101.215 44.6347 101.215 44.72L101.247 48.336C101.247 48.4213 101.204 48.464 101.119 48.464H94.527V54.064H101.119C101.204 54.064 101.247 54.1173 101.247 54.224V57.872C101.247 57.9573 101.204 58 101.119 58H90.783ZM104.221 58C104.135 58 104.093 57.9467 104.093 57.84L104.157 35.856C104.157 35.7707 104.199 35.728 104.285 35.728H110.749C111.901 35.728 112.957 36.016 113.917 36.592C114.898 37.1467 115.677 37.904 116.253 38.864C116.829 39.8027 117.117 40.8693 117.117 42.064C117.117 42.8533 116.999 43.568 116.765 44.208C116.53 44.8267 116.253 45.36 115.933 45.808C115.613 46.2347 115.325 46.5547 115.069 46.768C116.221 48.048 116.797 49.552 116.797 51.28L116.829 57.84C116.829 57.9467 116.775 58 116.669 58H113.053C112.967 58 112.925 57.968 112.925 57.904V51.28C112.925 50.512 112.647 49.8507 112.093 49.296C111.559 48.72 110.898 48.432 110.109 48.432H107.997L107.965 57.84C107.965 57.9467 107.922 58 107.837 58H104.221ZM107.997 44.592H110.749C111.41 44.592 111.997 44.3467 112.509 43.856C113.021 43.3653 113.277 42.768 113.277 42.064C113.277 41.3813 113.021 40.7947 112.509 40.304C112.018 39.8133 111.431 39.568 110.749 39.568H107.997V44.592ZM119.658 58C119.573 58 119.53 57.9467 119.53 57.84L119.594 35.856C119.594 35.7707 119.637 35.728 119.722 35.728H123.626C123.711 35.728 123.786 35.7707 123.85 35.856L126.762 40.08L129.674 35.856C129.738 35.7707 129.813 35.728 129.898 35.728H133.834C133.919 35.728 133.962 35.7707 133.962 35.856L134.026 57.84C134.026 57.9467 133.983 58 133.898 58H130.282C130.197 58 130.154 57.9467 130.154 57.84L130.122 41.52L126.762 46.384L123.434 41.52L123.402 57.84C123.402 57.9467 123.359 58 123.274 58H119.658ZM136.846 58C136.76 58 136.718 57.9467 136.718 57.84L136.75 35.856C136.75 35.7707 136.792 35.728 136.878 35.728H147.15C147.235 35.728 147.278 35.7813 147.278 35.888V39.472C147.278 39.5573 147.235 39.6 147.15 39.6H140.59V44.592H147.15C147.235 44.592 147.278 44.6347 147.278 44.72L147.31 48.336C147.31 48.4213 147.267 48.464 147.182 48.464H140.59V54.064H147.182C147.267 54.064 147.31 54.1173 147.31 54.224V57.872C147.31 57.9573 147.267 58 147.182 58H136.846ZM150.443 58C150.272 58 150.187 57.9253 150.187 57.776L150.155 35.984C150.155 35.8133 150.24 35.728 150.411 35.728H153.291L158.699 48.336L158.539 35.984C158.539 35.8133 158.635 35.728 158.827 35.728H161.995C162.123 35.728 162.187 35.8133 162.187 35.984L162.219 57.808C162.219 57.936 162.166 58 162.059 58H159.243L153.707 46.224L153.931 57.744C153.931 57.9147 153.835 58 153.643 58H150.443ZM168.199 58C168.113 58 168.071 57.9467 168.071 57.84V39.6H163.911C163.804 39.6 163.751 39.5467 163.751 39.44L163.783 35.856C163.783 35.7707 163.825 35.728 163.911 35.728H176.071C176.177 35.728 176.231 35.7707 176.231 35.856V39.44C176.231 39.5467 176.188 39.6 176.103 39.6H171.911L171.943 57.84C171.943 57.9467 171.9 58 171.815 58H168.199Z" fill="black"/>
<path d="M11.28 57.84L10.78 57.8393V57.84H11.28ZM11.312 35.856L11.812 35.8567V35.856H11.312ZM15.152 39.6V39.1H14.652V39.6H15.152ZM15.152 44.592H14.652V45.092H15.152V44.592ZM21.84 44.72H21.34L21.34 44.7244L21.84 44.72ZM21.872 48.336H22.372L22.372 48.3316L21.872 48.336ZM15.152 48.464V47.964H14.652V48.464H15.152ZM15.152 54.064H14.652V54.564H15.152V54.064ZM11.408 57.5C11.4757 57.5 11.6057 57.5267 11.7024 57.6477C11.7822 57.7473 11.78 57.8399 11.78 57.84H10.78C10.78 57.9468 10.7992 58.1193 10.9216 58.2723C11.061 58.4467 11.255 58.5 11.408 58.5V57.5ZM11.78 57.8407L11.812 35.8567L10.812 35.8553L10.78 57.8393L11.78 57.8407ZM11.812 35.856C11.812 35.8904 11.8031 36.008 11.6976 36.1136C11.592 36.2191 11.4744 36.228 11.44 36.228V35.228C11.3203 35.228 11.1386 35.2583 10.9904 35.4064C10.8423 35.5546 10.812 35.7363 10.812 35.856H11.812ZM11.44 36.228H21.712V35.228H11.44V36.228ZM21.712 36.228C21.6443 36.228 21.5143 36.2013 21.4176 36.0803C21.3378 35.9807 21.34 35.8881 21.34 35.888H22.34C22.34 35.7812 22.3208 35.6087 22.1984 35.4557C22.059 35.2813 21.865 35.228 21.712 35.228V36.228ZM21.34 35.888V39.472H22.34V35.888H21.34ZM21.34 39.472C21.34 39.4376 21.3489 39.32 21.4544 39.2144C21.56 39.1089 21.6776 39.1 21.712 39.1V40.1C21.8317 40.1 22.0134 40.0697 22.1616 39.9216C22.3097 39.7734 22.34 39.5917 22.34 39.472H21.34ZM21.712 39.1H15.152V40.1H21.712V39.1ZM14.652 39.6V44.592H15.652V39.6H14.652ZM15.152 45.092H21.712V44.092H15.152V45.092ZM21.712 45.092C21.6776 45.092 21.56 45.0831 21.4544 44.9776C21.3489 44.872 21.34 44.7544 21.34 44.72H22.34C22.34 44.6003 22.3097 44.4186 22.1616 44.2704C22.0134 44.1223 21.8317 44.092 21.712 44.092V45.092ZM21.34 44.7244L21.372 48.3404L22.372 48.3316L22.34 44.7156L21.34 44.7244ZM21.372 48.336C21.372 48.3016 21.3809 48.184 21.4864 48.0784C21.592 47.9729 21.7096 47.964 21.744 47.964V48.964C21.8637 48.964 22.0454 48.9337 22.1936 48.7856C22.3417 48.6374 22.372 48.4557 22.372 48.336H21.372ZM21.744 47.964H15.152V48.964H21.744V47.964ZM14.652 48.464V54.064H15.652V48.464H14.652ZM15.152 54.564H21.744V53.564H15.152V54.564ZM21.744 54.564C21.6763 54.564 21.5463 54.5373 21.4496 54.4163C21.3698 54.3167 21.372 54.2241 21.372 54.224H22.372C22.372 54.1172 22.3528 53.9447 22.2304 53.7917C22.091 53.6173 21.897 53.564 21.744 53.564V54.564ZM21.372 54.224V57.872H22.372V54.224H21.372ZM21.372 57.872C21.372 57.8376 21.3809 57.72 21.4864 57.6144C21.592 57.5089 21.7096 57.5 21.744 57.5V58.5C21.8637 58.5 22.0454 58.4697 22.1936 58.3216C22.3417 58.1734 22.372 57.9917 22.372 57.872H21.372ZM21.744 57.5H11.408V58.5H21.744V57.5ZM24.7175 57.84L24.2175 57.8385V57.84H24.7175ZM24.7815 35.856L25.2815 35.8575V35.856H24.7815ZM29.0375 35.856L29.4492 35.5722L29.4435 35.564L29.4375 35.556L29.0375 35.856ZM31.9495 40.08L31.5378 40.3638L31.9495 40.9609L32.3612 40.3638L31.9495 40.08ZM34.8615 35.856L34.4615 35.556L34.4555 35.564L34.4498 35.5722L34.8615 35.856ZM39.1495 35.856L38.6495 35.856L38.6495 35.8575L39.1495 35.856ZM39.2135 57.84L39.7135 57.84L39.7135 57.8385L39.2135 57.84ZM35.3415 57.84H35.8415L35.8415 57.839L35.3415 57.84ZM35.3095 41.52L35.8095 41.519L35.8064 39.921L34.8981 41.2358L35.3095 41.52ZM31.9495 46.384L31.5368 46.6663L31.9475 47.2666L32.3609 46.6682L31.9495 46.384ZM28.6215 41.52L29.0342 41.2377L28.1247 39.9084L28.1215 41.519L28.6215 41.52ZM28.5895 57.84L28.0895 57.839V57.84H28.5895ZM24.8455 57.5C24.9132 57.5 25.0432 57.5267 25.1399 57.6477C25.2197 57.7473 25.2175 57.8399 25.2175 57.84H24.2175C24.2175 57.9468 24.2367 58.1193 24.3591 58.2723C24.4985 58.4467 24.6925 58.5 24.8455 58.5V57.5ZM25.2175 57.8415L25.2815 35.8575L24.2815 35.8545L24.2175 57.8385L25.2175 57.8415ZM25.2815 35.856C25.2815 35.8904 25.2726 36.008 25.1671 36.1136C25.0615 36.2191 24.9439 36.228 24.9095 36.228V35.228C24.7898 35.228 24.6081 35.2583 24.4599 35.4064C24.3118 35.5546 24.2815 35.7363 24.2815 35.856H25.2815ZM24.9095 36.228H28.8135V35.228H24.9095V36.228ZM28.8135 36.228C28.7684 36.228 28.723 36.2156 28.6854 36.1941C28.6511 36.1745 28.6369 36.1552 28.6375 36.156L29.4375 35.556C29.3053 35.3797 29.0953 35.228 28.8135 35.228V36.228ZM28.6258 36.1398L31.5378 40.3638L32.3612 39.7962L29.4492 35.5722L28.6258 36.1398ZM32.3612 40.3638L35.2732 36.1398L34.4498 35.5722L31.5378 39.7962L32.3612 40.3638ZM35.2615 36.156C35.2615 36.156 35.2615 36.156 35.2615 36.156C35.2615 36.156 35.2615 36.156 35.2615 36.156C35.2615 36.156 35.2615 36.156 35.2615 36.156C35.2614 36.1561 35.2614 36.1561 35.2614 36.1562C35.2613 36.1563 35.2611 36.1565 35.2609 36.1568C35.2605 36.1573 35.2598 36.158 35.259 36.159C35.2572 36.161 35.2545 36.1639 35.2506 36.1674C35.2429 36.1746 35.2307 36.1843 35.2136 36.1941C35.176 36.2156 35.1306 36.228 35.0855 36.228V35.228C34.8037 35.228 34.5937 35.3797 34.4615 35.556L35.2615 36.156ZM35.0855 36.228H39.0215V35.228H35.0855V36.228ZM39.0215 36.228C38.9871 36.228 38.8695 36.2191 38.7639 36.1136C38.6584 36.008 38.6495 35.8904 38.6495 35.856H39.6495C39.6495 35.7363 39.6192 35.5546 39.4711 35.4064C39.3229 35.2583 39.1412 35.228 39.0215 35.228V36.228ZM38.6495 35.8575L38.7135 57.8415L39.7135 57.8385L39.6495 35.8545L38.6495 35.8575ZM38.7135 57.84C38.7135 57.8399 38.7113 57.7473 38.7911 57.6477C38.8878 57.5267 39.0178 57.5 39.0855 57.5V58.5C39.2385 58.5 39.4325 58.4467 39.5719 58.2723C39.6943 58.1193 39.7135 57.9468 39.7135 57.84H38.7135ZM39.0855 57.5H35.4695V58.5H39.0855V57.5ZM35.4695 57.5C35.5372 57.5 35.6672 57.5267 35.7639 57.6477C35.8437 57.7473 35.8415 57.8399 35.8415 57.84H34.8415C34.8415 57.9468 34.8607 58.1193 34.9831 58.2723C35.1225 58.4467 35.3165 58.5 35.4695 58.5V57.5ZM35.8415 57.839L35.8095 41.519L34.8095 41.521L34.8415 57.841L35.8415 57.839ZM34.8981 41.2358L31.5381 46.0998L32.3609 46.6682L35.7209 41.8042L34.8981 41.2358ZM32.3622 46.1017L29.0342 41.2377L28.2088 41.8023L31.5368 46.6663L32.3622 46.1017ZM28.1215 41.519L28.0895 57.839L29.0895 57.841L29.1215 41.521L28.1215 41.519ZM28.0895 57.84C28.0895 57.8399 28.0873 57.7473 28.1671 57.6477C28.2638 57.5267 28.3938 57.5 28.4615 57.5V58.5C28.6145 58.5 28.8085 58.4467 28.9479 58.2723C29.0703 58.1193 29.0895 57.9468 29.0895 57.84H28.0895ZM28.4615 57.5H24.8455V58.5H28.4615V57.5ZM41.905 57.84L41.405 57.8385V57.84H41.905ZM41.969 35.856L42.469 35.8575V35.856H41.969ZM52.881 37.52L52.5178 37.8637L52.5211 37.8671L52.881 37.52ZM53.713 46.32L54.1532 46.557L54.1532 46.557L53.713 46.32ZM51.377 48.88L51.1128 48.4555L51.1128 48.4555L51.377 48.88ZM45.809 49.776V49.276H45.309V49.776H45.809ZM45.809 45.904H45.309V46.404H45.809V45.904ZM50.001 44.944L49.6056 44.6379L49.6042 44.6398L50.001 44.944ZM50.097 40.336L50.4799 40.0144L50.4799 40.0144L50.097 40.336ZM48.241 39.536L48.241 39.036L48.2344 39.036L48.241 39.536ZM45.809 39.568L45.8024 39.068L45.309 39.0745V39.568H45.809ZM42.065 57.5C42.0887 57.5 42.1984 57.5063 42.2986 57.6064C42.3987 57.7066 42.405 57.8163 42.405 57.84H41.405C41.405 57.9704 41.4379 58.16 41.5914 58.3136C41.745 58.4671 41.9346 58.5 42.065 58.5V57.5ZM42.405 57.8415L42.469 35.8575L41.469 35.8545L41.405 57.8385L42.405 57.8415ZM42.469 35.856C42.469 35.8904 42.4601 36.008 42.3546 36.1136C42.249 36.2191 42.1314 36.228 42.097 36.228V35.228C41.9773 35.228 41.7956 35.2583 41.6474 35.4064C41.4993 35.5546 41.469 35.7363 41.469 35.856H42.469ZM42.097 36.228H48.241V35.228H42.097V36.228ZM48.241 36.228C50.095 36.228 51.4997 36.7879 52.5179 37.8637L53.2441 37.1763C52.001 35.8628 50.3123 35.228 48.241 35.228V36.228ZM52.5211 37.8671C53.5632 38.9478 54.109 40.4335 54.109 42.384H55.109C55.109 40.2385 54.5028 38.4815 53.2409 37.1729L52.5211 37.8671ZM54.109 42.384C54.109 43.8326 53.8237 45.0598 53.2728 46.0829L54.1532 46.557C54.797 45.3615 55.109 43.9648 55.109 42.384H54.109ZM53.2728 46.0829C52.7119 47.1245 51.9906 47.9093 51.1128 48.4555L51.6412 49.3045C52.6834 48.656 53.5194 47.7342 54.1532 46.557L53.2728 46.0829ZM51.1128 48.4555C50.2321 49.0035 49.2783 49.276 48.241 49.276V50.276C49.465 50.276 50.6019 49.9512 51.6412 49.3045L51.1128 48.4555ZM48.241 49.276H45.809V50.276H48.241V49.276ZM45.309 49.776V57.84H46.309V49.776H45.309ZM45.309 57.84C45.309 57.8163 45.3153 57.7066 45.4154 57.6064C45.5156 57.5063 45.6253 57.5 45.649 57.5V58.5C45.7794 58.5 45.969 58.4671 46.1226 58.3136C46.2761 58.16 46.309 57.9704 46.309 57.84H45.309ZM45.649 57.5H42.065V58.5H45.649V57.5ZM45.809 46.404H48.241V45.404H45.809V46.404ZM48.241 46.404C49.1084 46.404 49.8318 45.9865 50.3978 45.2482L49.6042 44.6398C49.1888 45.1815 48.739 45.404 48.241 45.404V46.404ZM50.3964 45.2501C50.9916 44.4812 51.269 43.5119 51.269 42.384H50.269C50.269 43.3467 50.0344 44.0842 49.6056 44.6379L50.3964 45.2501ZM51.269 42.384C51.269 41.4583 51.0176 40.6546 50.4799 40.0144L49.7141 40.6576C50.0724 41.0841 50.269 41.6457 50.269 42.384H51.269ZM50.4799 40.0144C49.9235 39.3521 49.156 39.036 48.241 39.036V40.036C48.9047 40.036 49.3745 40.2532 49.7141 40.6576L50.4799 40.0144ZM48.2344 39.036L45.8024 39.068L45.8156 40.068L48.2476 40.036L48.2344 39.036ZM45.309 39.568V45.904H46.309V39.568H45.309ZM59.2195 57.456L58.951 57.878L58.9623 57.8847L59.2195 57.456ZM56.9475 55.12L56.5163 55.3731L56.5188 55.3772L56.9475 55.12ZM56.0835 51.888L55.5835 51.8864V51.888H56.0835ZM56.1155 41.744L56.6155 41.7456V41.744H56.1155ZM56.9475 38.544L56.5187 38.2867L56.5146 38.2939L56.9475 38.544ZM59.2515 36.24L59.5087 36.6687L59.5087 36.6687L59.2515 36.24ZM65.5235 36.24L65.262 36.6662L65.262 36.6662L65.5235 36.24ZM67.7635 38.544L67.3305 38.7942L67.3348 38.8012L67.7635 38.544ZM68.6275 41.744L68.1275 41.744L68.1275 41.7456L68.6275 41.744ZM68.6595 51.888L69.1595 51.888L69.1595 51.8864L68.6595 51.888ZM67.7955 55.12L67.3643 54.8669L67.3626 54.8699L67.7955 55.12ZM65.5235 57.456L65.785 57.8822L65.7877 57.8805L65.5235 57.456ZM64.0515 53.68L63.6835 53.3415L63.6829 53.3421L64.0515 53.68ZM64.7875 51.888L65.2875 51.888L65.2875 51.8864L64.7875 51.888ZM64.7555 41.744L64.2555 41.744L64.2555 41.7456L64.7555 41.744ZM64.0835 39.952L64.4527 39.6149L64.4527 39.6149L64.0835 39.952ZM60.6915 39.952L61.0451 40.3056L61.0528 40.2976L60.6915 39.952ZM60.6915 53.712L60.3228 54.0499L60.3302 54.0576L60.6915 53.712ZM62.3875 57.82C61.3234 57.82 60.3567 57.5552 59.4767 57.0273L58.9623 57.8847C60.0023 58.5088 61.1476 58.82 62.3875 58.82V57.82ZM59.4879 57.0342C58.6152 56.4788 57.9126 55.7566 57.3762 54.8628L56.5188 55.3772C57.1344 56.4034 57.9465 57.2386 58.9511 57.8778L59.4879 57.0342ZM57.3787 54.8669C56.8492 53.9648 56.5835 52.9752 56.5835 51.888H55.5835C55.5835 53.1474 55.8938 54.3126 56.5163 55.3731L57.3787 54.8669ZM56.5835 51.8896L56.6155 41.7456L55.6155 41.7424L55.5835 51.8864L56.5835 51.8896ZM56.6155 41.744C56.6155 40.6532 56.8723 39.6736 57.3804 38.7941L56.5146 38.2939C55.9134 39.3344 55.6155 40.4882 55.6155 41.744H56.6155ZM57.3762 38.8012C57.91 37.9116 58.6191 37.2025 59.5087 36.6687L58.9943 35.8113C57.9639 36.4295 57.137 37.2564 56.5188 38.2868L57.3762 38.8012ZM59.5087 36.6687C60.3902 36.1399 61.3465 35.876 62.3875 35.876V34.876C61.1672 34.876 60.0328 35.1881 58.9943 35.8113L59.5087 36.6687ZM62.3875 35.876C63.4516 35.876 64.4057 36.1407 65.262 36.6662L65.785 35.8138C64.764 35.1873 63.6274 34.876 62.3875 34.876V35.876ZM65.262 36.6662C66.1293 37.1984 66.8172 37.9056 67.3306 38.7941L68.1964 38.2939C67.6004 37.2623 66.7951 36.4336 65.785 35.8138L65.262 36.6662ZM67.3348 38.8012C67.8618 39.6797 68.1275 40.6567 68.1275 41.744H69.1275C69.1275 40.4846 68.8172 39.3283 68.1922 38.2868L67.3348 38.8012ZM68.1275 41.7456L68.1595 51.8896L69.1595 51.8864L69.1275 41.7424L68.1275 41.7456ZM68.1595 51.888C68.1595 52.9752 67.8938 53.9648 67.3643 54.8669L68.2267 55.3731C68.8492 54.3126 69.1595 53.1474 69.1595 51.888H68.1595ZM67.3626 54.8699C66.8498 55.7573 66.1511 56.4766 65.2593 57.0315L65.7877 57.8805C66.8159 57.2407 67.6318 56.4027 68.2284 55.3701L67.3626 54.8699ZM65.262 57.0298C64.4057 57.5553 63.4516 57.82 62.3875 57.82V58.82C63.6274 58.82 64.764 58.5087 65.785 57.8822L65.262 57.0298ZM62.3875 54.948C63.1805 54.948 63.8651 54.6233 64.4201 54.0179L63.6829 53.3421C63.2993 53.7607 62.8745 53.948 62.3875 53.948V54.948ZM64.4195 54.0185C64.9862 53.4025 65.2875 52.6872 65.2875 51.888H64.2875C64.2875 52.4115 64.0981 52.8908 63.6835 53.3415L64.4195 54.0185ZM65.2875 51.8864L65.2555 41.7424L64.2555 41.7456L64.2875 51.8896L65.2875 51.8864ZM65.2555 41.744C65.2555 40.9234 64.9902 40.2035 64.4527 39.6149L63.7143 40.2891C64.0728 40.6818 64.2555 41.1566 64.2555 41.744H65.2555ZM64.4527 39.6149C63.9071 39.0173 63.2063 38.716 62.3875 38.716V39.716C62.9341 39.716 63.3639 39.9054 63.7143 40.2891L64.4527 39.6149ZM62.3875 38.716C61.5857 38.716 60.891 39.0201 60.3302 39.6064L61.0528 40.2976C61.4307 39.9026 61.8667 39.716 62.3875 39.716V38.716ZM60.3379 39.5984C59.7657 40.1707 59.4875 40.8996 59.4875 41.744H60.4875C60.4875 41.1377 60.6787 40.672 61.0451 40.3056L60.3379 39.5984ZM59.4875 41.744V51.888H60.4875V41.744H59.4875ZM59.4875 51.888C59.4875 52.7152 59.7678 53.4443 60.3229 54.0499L61.0601 53.3741C60.6765 52.9557 60.4875 52.4688 60.4875 51.888H59.4875ZM60.3302 54.0576C60.891 54.6439 61.5857 54.948 62.3875 54.948V53.948C61.8667 53.948 61.4307 53.7614 61.0528 53.3664L60.3302 54.0576ZM73.314 57.84L72.821 57.9247L72.8237 57.9381L73.314 57.84ZM69.538 35.856L70.0308 35.7714L70.0276 35.7529L70.0231 35.7347L69.538 35.856ZM73.378 35.856L73.8731 35.7859L73.8694 35.7601L73.8631 35.7347L73.378 35.856ZM75.426 50.32L74.9309 50.3901L75.9208 50.3922L75.426 50.32ZM77.538 35.856L77.0529 35.7347L77.0469 35.759L77.0432 35.7838L77.538 35.856ZM80.77 35.856L81.2649 35.7848L81.2613 35.7595L81.2551 35.7347L80.77 35.856ZM82.85 50.32L82.3551 50.3912H83.3449L82.85 50.32ZM84.93 35.856L84.4449 35.7347L84.4387 35.7595L84.4351 35.7848L84.93 35.856ZM88.77 35.856L88.2849 35.7347L88.2805 35.7526L88.2773 35.7707L88.77 35.856ZM84.962 57.84L85.4092 58.0636L85.4421 57.9978L85.4547 57.9253L84.962 57.84ZM84.866 57.968L85.0896 58.4152L85.1622 58.3789L85.2196 58.3216L84.866 57.968ZM84.802 58V58.5H84.92L85.0256 58.4472L84.802 58ZM80.77 57.84L80.275 57.9103L80.2834 57.9699L80.3058 58.0257L80.77 57.84ZM79.138 46.352L79.633 46.2817H78.643L79.138 46.352ZM77.506 57.84L77.9963 57.9381L77.9991 57.9243L78.001 57.9103L77.506 57.84ZM73.474 57.5C73.545 57.5 73.6438 57.5267 73.7236 57.6064C73.7912 57.6741 73.8038 57.7393 73.8043 57.7419L72.8237 57.9381C72.8456 58.0474 72.8955 58.1926 73.0164 58.3136C73.1495 58.4466 73.3177 58.5 73.474 58.5V57.5ZM73.8068 57.7554L70.0308 35.7714L69.0452 35.9406L72.8212 57.9246L73.8068 57.7554ZM70.0231 35.7347C70.0256 35.745 70.0654 35.9008 69.946 36.06C69.8222 36.2251 69.6535 36.228 69.634 36.228V35.228C69.5292 35.228 69.3018 35.2523 69.146 35.46C68.9946 35.6619 69.029 35.8817 69.0529 35.9773L70.0231 35.7347ZM69.634 36.228H73.218V35.228H69.634V36.228ZM73.218 36.228C73.1761 36.228 73.0919 36.2162 73.0097 36.1504C72.929 36.0859 72.9011 36.01 72.8929 35.9773L73.8631 35.7347C73.8335 35.6166 73.7684 35.4768 73.6343 35.3696C73.4988 35.2611 73.3452 35.228 73.218 35.228V36.228ZM72.8829 35.9261L74.9309 50.3901L75.9211 50.2499L73.8731 35.7859L72.8829 35.9261ZM75.9208 50.3922L78.0328 35.9282L77.0432 35.7838L74.9312 50.2478L75.9208 50.3922ZM78.0231 35.9773C78.0082 36.0367 77.9657 36.1184 77.8794 36.176C77.8031 36.2268 77.7385 36.228 77.73 36.228V35.228C77.6149 35.228 77.4649 35.2505 77.3247 35.344C77.1743 35.4442 77.0891 35.5899 77.0529 35.7347L78.0231 35.9773ZM77.73 36.228H80.61V35.228H77.73V36.228ZM80.61 36.228C80.5681 36.228 80.4839 36.2162 80.4017 36.1504C80.321 36.0859 80.2931 36.01 80.2849 35.9773L81.2551 35.7347C81.2255 35.6166 81.1604 35.4768 81.0263 35.3696C80.8908 35.2611 80.7372 35.228 80.61 35.228V36.228ZM80.2751 35.9272L82.3551 50.3912L83.3449 50.2488L81.2649 35.7848L80.2751 35.9272ZM83.3449 50.3912L85.4249 35.9272L84.4351 35.7848L82.3551 50.2488L83.3449 50.3912ZM85.4151 35.9773C85.4069 36.01 85.379 36.0859 85.2983 36.1504C85.2161 36.2162 85.1319 36.228 85.09 36.228V35.228C84.9628 35.228 84.8092 35.2611 84.6737 35.3696C84.5397 35.4768 84.4745 35.6166 84.4449 35.7347L85.4151 35.9773ZM85.09 36.228H88.642V35.228H85.09V36.228ZM88.642 36.228C88.6382 36.228 88.6118 36.2279 88.5726 36.2168C88.5325 36.2053 88.4647 36.1778 88.4004 36.1136C88.2461 35.9592 88.2743 35.7773 88.2849 35.7347L89.2551 35.9773C89.287 35.8494 89.3046 35.6035 89.1076 35.4064C88.9423 35.2412 88.7342 35.228 88.642 35.228V36.228ZM88.2773 35.7707L84.4693 57.7547L85.4547 57.9253L89.2627 35.9413L88.2773 35.7707ZM84.5148 57.6164C84.519 57.608 84.5221 57.6039 84.522 57.604C84.5219 57.6041 84.5192 57.6077 84.5124 57.6144L85.2196 58.3216C85.2906 58.2505 85.3584 58.1651 85.4092 58.0636L84.5148 57.6164ZM84.6424 57.5208C84.6273 57.5283 84.5989 57.5426 84.5944 57.5448C84.5877 57.5481 84.5864 57.5488 84.5824 57.5508C84.5806 57.5517 84.5805 57.5517 84.5794 57.5523C84.5791 57.5524 84.5788 57.5526 84.5786 57.5527C84.5786 57.5527 84.5786 57.5527 84.5786 57.5527C84.5786 57.5527 84.5786 57.5527 84.5786 57.5527C84.5786 57.5527 84.5786 57.5527 84.5785 57.5527C84.5785 57.5527 84.5785 57.5527 84.5785 57.5527C84.5785 57.5527 84.5785 57.5527 84.5785 57.5527C84.5785 57.5527 84.5785 57.5527 84.5785 57.5527C84.5785 57.5527 84.5785 57.5528 84.5785 57.5528C84.5784 57.5528 84.5784 57.5528 84.5784 57.5528C84.5784 57.5528 84.5784 57.5528 84.5784 57.5528C84.5784 57.5528 84.5784 57.5528 84.5784 57.5528C84.5784 57.5528 84.5784 57.5528 84.5784 57.5528C84.5784 57.5528 84.5784 57.5528 84.5784 57.5528C84.5784 57.5528 84.5784 57.5528 84.802 58C85.0256 58.4472 85.0256 58.4472 85.0256 58.4472C85.0256 58.4472 85.0256 58.4472 85.0256 58.4472C85.0256 58.4472 85.0256 58.4472 85.0256 58.4472C85.0256 58.4472 85.0256 58.4472 85.0256 58.4472C85.0256 58.4472 85.0256 58.4472 85.0256 58.4472C85.0256 58.4472 85.0256 58.4472 85.0256 58.4472C85.0256 58.4472 85.0256 58.4472 85.0256 58.4472C85.0256 58.4472 85.0256 58.4472 85.0256 58.4472C85.0256 58.4472 85.0256 58.4472 85.0256 58.4472C85.0256 58.4472 85.0256 58.4472 85.0256 58.4472C85.0256 58.4472 85.0256 58.4472 85.0256 58.4472C85.0257 58.4472 85.0257 58.4472 85.0257 58.4472C85.0258 58.4471 85.0256 58.4472 85.0257 58.4471C85.0261 58.447 85.0255 58.4472 85.0259 58.4471C85.0259 58.447 85.0258 58.4471 85.0259 58.4471C85.026 58.447 85.0259 58.4471 85.026 58.447C85.0262 58.4469 85.026 58.447 85.0262 58.4469C85.0262 58.4469 85.0265 58.4468 85.0266 58.4467C85.0269 58.4466 85.0266 58.4467 85.0269 58.4466C85.0271 58.4465 85.0269 58.4466 85.0272 58.4464C85.0273 58.4463 85.0272 58.4464 85.0273 58.4464C85.0275 58.4463 85.0273 58.4464 85.0274 58.4463C85.0274 58.4463 85.0275 58.4463 85.0275 58.4463C85.028 58.446 85.0274 58.4463 85.0279 58.4461C85.0287 58.4457 85.0286 58.4457 85.0296 58.4452C85.0296 58.4452 85.0296 58.4452 85.0297 58.4452C85.0297 58.4452 85.0297 58.4452 85.0297 58.4452C85.0299 58.4451 85.0297 58.4452 85.0299 58.4451C85.0301 58.445 85.0299 58.4451 85.0301 58.445C85.0301 58.4449 85.0302 58.4449 85.0302 58.4449C85.0302 58.4449 85.0302 58.4449 85.0303 58.4449C85.0303 58.4448 85.0303 58.4449 85.0304 58.4448C85.031 58.4445 85.03 58.445 85.0307 58.4447C85.0328 58.4436 85.0297 58.4452 85.0319 58.4441C85.035 58.4425 85.0313 58.4444 85.0346 58.4427C85.0359 58.442 85.0396 58.4402 85.0416 58.4392C85.0429 58.4385 85.0444 58.4378 85.0459 58.4371C85.049 58.4355 85.0473 58.4364 85.0506 58.4347C85.0533 58.4334 85.0504 58.4348 85.0532 58.4334C85.0552 58.4324 85.0538 58.4331 85.0559 58.4321C85.0582 58.4309 85.0591 58.4304 85.0616 58.4292C85.0692 58.4254 85.0664 58.4268 85.0746 58.4227C85.0778 58.4211 85.0731 58.4235 85.0764 58.4218C85.0796 58.4202 85.075 58.4225 85.0782 58.4209C85.0782 58.4209 85.0783 58.4209 85.0784 58.4208C85.0785 58.4208 85.0785 58.4207 85.0786 58.4207C85.0794 58.4203 85.0783 58.4209 85.0791 58.4205C85.0794 58.4203 85.0797 58.4202 85.08 58.42C85.0805 58.4198 85.0814 58.4193 85.0819 58.4191C85.0884 58.4158 85.0829 58.4186 85.0896 58.4152L84.6424 57.5208ZM84.802 57.5H80.93V58.5H84.802V57.5ZM80.93 57.5C81.0541 57.5 81.1465 57.5574 81.1956 57.6064C81.2351 57.646 81.2423 57.6744 81.2342 57.6543L80.3058 58.0257C80.3598 58.1609 80.5308 58.5 80.93 58.5V57.5ZM81.265 57.7697L79.633 46.2817L78.643 46.4223L80.275 57.9103L81.265 57.7697ZM78.643 46.2817L77.011 57.7697L78.001 57.9103L79.633 46.4223L78.643 46.2817ZM77.0157 57.7419C77.0162 57.7393 77.0288 57.6741 77.0964 57.6064C77.1762 57.5267 77.275 57.5 77.346 57.5V58.5C77.5023 58.5 77.6705 58.4466 77.8036 58.3136C77.9245 58.1926 77.9744 58.0474 77.9963 57.9381L77.0157 57.7419ZM77.346 57.5H73.474V58.5H77.346V57.5ZM90.655 57.84L90.155 57.8393V57.84H90.655ZM90.687 35.856L91.187 35.8567V35.856H90.687ZM94.527 39.6V39.1H94.027V39.6H94.527ZM94.527 44.592H94.027V45.092H94.527V44.592ZM101.215 44.72H100.715L100.715 44.7244L101.215 44.72ZM101.247 48.336H101.747L101.747 48.3316L101.247 48.336ZM94.527 48.464V47.964H94.027V48.464H94.527ZM94.527 54.064H94.027V54.564H94.527V54.064ZM90.783 57.5C90.8507 57.5 90.9807 57.5267 91.0774 57.6477C91.1572 57.7473 91.155 57.8399 91.155 57.84H90.155C90.155 57.9468 90.1742 58.1193 90.2966 58.2723C90.436 58.4467 90.63 58.5 90.783 58.5V57.5ZM91.155 57.8407L91.187 35.8567L90.187 35.8553L90.155 57.8393L91.155 57.8407ZM91.187 35.856C91.187 35.8904 91.1781 36.008 91.0726 36.1136C90.967 36.2191 90.8494 36.228 90.815 36.228V35.228C90.6953 35.228 90.5136 35.2583 90.3654 35.4064C90.2173 35.5546 90.187 35.7363 90.187 35.856H91.187ZM90.815 36.228H101.087V35.228H90.815V36.228ZM101.087 36.228C101.019 36.228 100.889 36.2013 100.793 36.0803C100.713 35.9807 100.715 35.8881 100.715 35.888H101.715C101.715 35.7812 101.696 35.6087 101.573 35.4557C101.434 35.2813 101.24 35.228 101.087 35.228V36.228ZM100.715 35.888V39.472H101.715V35.888H100.715ZM100.715 39.472C100.715 39.4376 100.724 39.32 100.829 39.2144C100.935 39.1089 101.053 39.1 101.087 39.1V40.1C101.207 40.1 101.388 40.0697 101.537 39.9216C101.685 39.7734 101.715 39.5917 101.715 39.472H100.715ZM101.087 39.1H94.527V40.1H101.087V39.1ZM94.027 39.6V44.592H95.027V39.6H94.027ZM94.527 45.092H101.087V44.092H94.527V45.092ZM101.087 45.092C101.053 45.092 100.935 45.0831 100.829 44.9776C100.724 44.872 100.715 44.7544 100.715 44.72H101.715C101.715 44.6003 101.685 44.4186 101.537 44.2704C101.388 44.1223 101.207 44.092 101.087 44.092V45.092ZM100.715 44.7244L100.747 48.3404L101.747 48.3316L101.715 44.7156L100.715 44.7244ZM100.747 48.336C100.747 48.3016 100.756 48.184 100.861 48.0784C100.967 47.9729 101.085 47.964 101.119 47.964V48.964C101.239 48.964 101.42 48.9337 101.569 48.7856C101.717 48.6374 101.747 48.4557 101.747 48.336H100.747ZM101.119 47.964H94.527V48.964H101.119V47.964ZM94.027 48.464V54.064H95.027V48.464H94.027ZM94.527 54.564H101.119V53.564H94.527V54.564ZM101.119 54.564C101.051 54.564 100.921 54.5373 100.825 54.4163C100.745 54.3167 100.747 54.2241 100.747 54.224H101.747C101.747 54.1172 101.728 53.9447 101.605 53.7917C101.466 53.6173 101.272 53.564 101.119 53.564V54.564ZM100.747 54.224V57.872H101.747V54.224H100.747ZM100.747 57.872C100.747 57.8376 100.756 57.72 100.861 57.6144C100.967 57.5089 101.085 57.5 101.119 57.5V58.5C101.239 58.5 101.42 58.4697 101.569 58.3216C101.717 58.1734 101.747 57.9917 101.747 57.872H100.747ZM101.119 57.5H90.783V58.5H101.119V57.5ZM104.093 57.84L103.593 57.8385V57.84H104.093ZM104.157 35.856L104.657 35.8575V35.856H104.157ZM113.917 36.592L113.659 37.0209L113.67 37.0273L113.917 36.592ZM116.253 38.864L115.824 39.1213L115.826 39.1255L116.253 38.864ZM116.765 44.208L117.232 44.3853L117.234 44.3801L116.765 44.208ZM115.933 45.808L116.333 46.1081L116.339 46.0986L115.933 45.808ZM115.069 46.768L114.748 46.3839L114.349 46.7164L114.697 47.1025L115.069 46.768ZM116.797 51.28L116.296 51.28L116.297 51.2824L116.797 51.28ZM116.829 57.84L117.329 57.84L117.328 57.8376L116.829 57.84ZM112.093 49.296L111.726 49.6357L111.732 49.6428L111.739 49.6496L112.093 49.296ZM107.997 48.432V47.932H107.498L107.497 48.4303L107.997 48.432ZM107.965 57.84L107.465 57.8383V57.84H107.965ZM107.997 44.592H107.497V45.092H107.997V44.592ZM112.509 43.856L112.163 43.495L112.163 43.495L112.509 43.856ZM112.509 40.304L112.155 40.6576L112.163 40.665L112.509 40.304ZM107.997 39.568V39.068H107.497V39.568H107.997ZM104.221 57.5C104.288 57.5 104.418 57.5267 104.515 57.6477C104.595 57.7473 104.593 57.8399 104.593 57.84H103.593C103.593 57.9468 103.612 58.1193 103.734 58.2723C103.874 58.4467 104.067 58.5 104.221 58.5V57.5ZM104.592 57.8415L104.656 35.8575L103.657 35.8545L103.593 57.8385L104.592 57.8415ZM104.657 35.856C104.657 35.8904 104.648 36.008 104.542 36.1136C104.437 36.2191 104.319 36.228 104.285 36.228V35.228C104.165 35.228 103.983 35.2583 103.835 35.4064C103.687 35.5546 103.657 35.7363 103.657 35.856H104.657ZM104.285 36.228H110.749V35.228H104.285V36.228ZM110.749 36.228C111.813 36.228 112.779 36.4928 113.659 37.0207L114.174 36.1633C113.134 35.5392 111.988 35.228 110.749 35.228V36.228ZM113.67 37.0273C114.577 37.5397 115.293 38.2359 115.824 39.1212L116.681 38.6068C116.06 37.5721 115.219 36.7536 114.163 36.1567L113.67 37.0273ZM115.826 39.1255C116.35 39.9789 116.617 40.9535 116.617 42.064H117.617C117.617 40.7851 117.307 39.6265 116.679 38.6025L115.826 39.1255ZM116.617 42.064C116.617 42.8037 116.507 43.459 116.295 44.0359L117.234 44.3801C117.492 43.677 117.617 42.9029 117.617 42.064H116.617ZM116.297 44.0307C116.075 44.6169 115.816 45.1106 115.526 45.5174L116.339 46.0986C116.689 45.6094 116.985 45.0364 117.232 44.3853L116.297 44.0307ZM115.533 45.508C115.224 45.9198 114.962 46.2056 114.748 46.3839L115.389 47.1521C115.687 46.9037 116.001 46.5496 116.333 46.108L115.533 45.508ZM114.697 47.1025C115.766 48.2903 116.297 49.675 116.297 51.28H117.297C117.297 49.429 116.675 47.8057 115.44 46.4335L114.697 47.1025ZM116.297 51.2824L116.329 57.8424L117.328 57.8376L117.296 51.2776L116.297 51.2824ZM116.329 57.84C116.329 57.8163 116.335 57.7066 116.435 57.6064C116.535 57.5063 116.645 57.5 116.669 57.5V58.5C116.799 58.5 116.989 58.4671 117.142 58.3136C117.296 58.16 117.329 57.9704 117.329 57.84H116.329ZM116.669 57.5H113.053V58.5H116.669V57.5ZM113.053 57.5C113.058 57.5 113.153 57.4985 113.257 57.576C113.313 57.6184 113.36 57.6757 113.389 57.7429C113.418 57.8072 113.425 57.865 113.425 57.904H112.425C112.425 58.058 112.483 58.2462 112.657 58.376C112.803 58.4855 112.962 58.5 113.053 58.5V57.5ZM113.425 57.904V51.28H112.425V57.904H113.425ZM113.425 51.28C113.425 50.3762 113.092 49.5886 112.446 48.9424L111.739 49.6496C112.202 50.1127 112.425 50.6478 112.425 51.28H113.425ZM112.459 48.9563C111.831 48.2775 111.036 47.932 110.109 47.932V48.932C110.759 48.932 111.288 49.1625 111.726 49.6357L112.459 48.9563ZM110.109 47.932H107.997V48.932H110.109V47.932ZM107.497 48.4303L107.465 57.8383L108.464 57.8417L108.496 48.4337L107.497 48.4303ZM107.465 57.84C107.465 57.8399 107.462 57.7473 107.542 57.6477C107.639 57.5267 107.769 57.5 107.837 57.5V58.5C107.99 58.5 108.183 58.4467 108.323 58.2723C108.445 58.1193 108.465 57.9468 108.465 57.84H107.465ZM107.837 57.5H104.221V58.5H107.837V57.5ZM107.997 45.092H110.749V44.092H107.997V45.092ZM110.749 45.092C111.549 45.092 112.257 44.7898 112.854 44.217L112.163 43.495C111.736 43.9036 111.271 44.092 110.749 44.092V45.092ZM112.854 44.217C113.464 43.6328 113.777 42.9054 113.777 42.064H112.777C112.777 42.6306 112.577 43.0979 112.163 43.495L112.854 44.217ZM113.777 42.064C113.777 41.2392 113.461 40.5239 112.854 39.943L112.163 40.665C112.58 41.0655 112.777 41.5235 112.777 42.064H113.777ZM112.862 39.9504C112.279 39.3677 111.566 39.068 110.749 39.068V40.068C111.296 40.068 111.756 40.2589 112.155 40.6576L112.862 39.9504ZM110.749 39.068H107.997V40.068H110.749V39.068ZM107.497 39.568V44.592H108.497V39.568H107.497ZM119.53 57.84L119.03 57.8385V57.84H119.53ZM119.594 35.856L120.094 35.8575V35.856H119.594ZM123.85 35.856L124.262 35.5722L124.256 35.564L124.25 35.556L123.85 35.856ZM126.762 40.08L126.35 40.3638L126.762 40.9609L127.174 40.3638L126.762 40.08ZM129.674 35.856L129.274 35.556L129.268 35.564L129.262 35.5722L129.674 35.856ZM133.962 35.856L133.462 35.856L133.462 35.8575L133.962 35.856ZM134.026 57.84L134.526 57.84L134.526 57.8385L134.026 57.84ZM130.154 57.84H130.654L130.654 57.839L130.154 57.84ZM130.122 41.52L130.622 41.519L130.619 39.921L129.711 41.2358L130.122 41.52ZM126.762 46.384L126.349 46.6663L126.76 47.2666L127.173 46.6682L126.762 46.384ZM123.434 41.52L123.847 41.2377L122.937 39.9084L122.934 41.519L123.434 41.52ZM123.402 57.84L122.902 57.839V57.84H123.402ZM119.658 57.5C119.726 57.5 119.856 57.5267 119.952 57.6477C120.032 57.7473 120.03 57.8399 120.03 57.84H119.03C119.03 57.9468 119.049 58.1193 119.172 58.2723C119.311 58.4467 119.505 58.5 119.658 58.5V57.5ZM120.03 57.8415L120.094 35.8575L119.094 35.8545L119.03 57.8385L120.03 57.8415ZM120.094 35.856C120.094 35.8904 120.085 36.008 119.98 36.1136C119.874 36.2191 119.756 36.228 119.722 36.228V35.228C119.602 35.228 119.421 35.2583 119.272 35.4064C119.124 35.5546 119.094 35.7363 119.094 35.856H120.094ZM119.722 36.228H123.626V35.228H119.722V36.228ZM123.626 36.228C123.581 36.228 123.536 36.2156 123.498 36.1941C123.464 36.1745 123.449 36.1552 123.45 36.156L124.25 35.556C124.118 35.3797 123.908 35.228 123.626 35.228V36.228ZM123.438 36.1398L126.35 40.3638L127.174 39.7962L124.262 35.5722L123.438 36.1398ZM127.174 40.3638L130.086 36.1398L129.262 35.5722L126.35 39.7962L127.174 40.3638ZM130.074 36.156C130.074 36.156 130.074 36.156 130.074 36.156C130.074 36.156 130.074 36.156 130.074 36.156C130.074 36.156 130.074 36.156 130.074 36.156C130.074 36.1561 130.074 36.1561 130.074 36.1562C130.074 36.1563 130.074 36.1565 130.073 36.1568C130.073 36.1573 130.072 36.158 130.071 36.159C130.07 36.161 130.067 36.1639 130.063 36.1674C130.055 36.1746 130.043 36.1843 130.026 36.1941C129.988 36.2156 129.943 36.228 129.898 36.228V35.228C129.616 35.228 129.406 35.3797 129.274 35.556L130.074 36.156ZM129.898 36.228H133.834V35.228H129.898V36.228ZM133.834 36.228C133.8 36.228 133.682 36.2191 133.576 36.1136C133.471 36.008 133.462 35.8904 133.462 35.856H134.462C134.462 35.7363 134.432 35.5546 134.284 35.4064C134.135 35.2583 133.954 35.228 133.834 35.228V36.228ZM133.462 35.8575L133.526 57.8415L134.526 57.8385L134.462 35.8545L133.462 35.8575ZM133.526 57.84C133.526 57.8399 133.524 57.7473 133.604 57.6477C133.7 57.5267 133.83 57.5 133.898 57.5V58.5C134.051 58.5 134.245 58.4467 134.384 58.2723C134.507 58.1193 134.526 57.9468 134.526 57.84H133.526ZM133.898 57.5H130.282V58.5H133.898V57.5ZM130.282 57.5C130.35 57.5 130.48 57.5267 130.576 57.6477C130.656 57.7473 130.654 57.8399 130.654 57.84H129.654C129.654 57.9468 129.673 58.1193 129.796 58.2723C129.935 58.4467 130.129 58.5 130.282 58.5V57.5ZM130.654 57.839L130.622 41.519L129.622 41.521L129.654 57.841L130.654 57.839ZM129.711 41.2358L126.351 46.0998L127.173 46.6682L130.533 41.8042L129.711 41.2358ZM127.175 46.1017L123.847 41.2377L123.021 41.8023L126.349 46.6663L127.175 46.1017ZM122.934 41.519L122.902 57.839L123.902 57.841L123.934 41.521L122.934 41.519ZM122.902 57.84C122.902 57.8399 122.9 57.7473 122.98 57.6477C123.076 57.5267 123.206 57.5 123.274 57.5V58.5C123.427 58.5 123.621 58.4467 123.76 58.2723C123.883 58.1193 123.902 57.9468 123.902 57.84H122.902ZM123.274 57.5H119.658V58.5H123.274V57.5ZM136.718 57.84L136.218 57.8393V57.84H136.718ZM136.75 35.856L137.25 35.8567V35.856H136.75ZM140.59 39.6V39.1H140.09V39.6H140.59ZM140.59 44.592H140.09V45.092H140.59V44.592ZM147.278 44.72H146.777L146.778 44.7244L147.278 44.72ZM147.31 48.336H147.81L147.809 48.3316L147.31 48.336ZM140.59 48.464V47.964H140.09V48.464H140.59ZM140.59 54.064H140.09V54.564H140.59V54.064ZM136.846 57.5C136.913 57.5 137.043 57.5267 137.14 57.6477C137.22 57.7473 137.218 57.8399 137.218 57.84H136.218C136.218 57.9468 136.237 58.1193 136.359 58.2723C136.499 58.4467 136.692 58.5 136.846 58.5V57.5ZM137.217 57.8407L137.249 35.8567L136.25 35.8553L136.218 57.8393L137.217 57.8407ZM137.25 35.856C137.25 35.8904 137.241 36.008 137.135 36.1136C137.03 36.2191 136.912 36.228 136.878 36.228V35.228C136.758 35.228 136.576 35.2583 136.428 35.4064C136.28 35.5546 136.25 35.7363 136.25 35.856H137.25ZM136.878 36.228H147.15V35.228H136.878V36.228ZM147.15 36.228C147.082 36.228 146.952 36.2013 146.855 36.0803C146.775 35.9807 146.778 35.8881 146.778 35.888H147.778C147.778 35.7812 147.758 35.6087 147.636 35.4557C147.496 35.2813 147.303 35.228 147.15 35.228V36.228ZM146.778 35.888V39.472H147.778V35.888H146.778ZM146.778 39.472C146.778 39.4376 146.786 39.32 146.892 39.2144C146.997 39.1089 147.115 39.1 147.15 39.1V40.1C147.269 40.1 147.451 40.0697 147.599 39.9216C147.747 39.7734 147.778 39.5917 147.778 39.472H146.778ZM147.15 39.1H140.59V40.1H147.15V39.1ZM140.09 39.6V44.592H141.09V39.6H140.09ZM140.59 45.092H147.15V44.092H140.59V45.092ZM147.15 45.092C147.115 45.092 146.997 45.0831 146.892 44.9776C146.786 44.872 146.778 44.7544 146.778 44.72H147.778C147.778 44.6003 147.747 44.4186 147.599 44.2704C147.451 44.1223 147.269 44.092 147.15 44.092V45.092ZM146.778 44.7244L146.81 48.3404L147.809 48.3316L147.777 44.7156L146.778 44.7244ZM146.81 48.336C146.81 48.3016 146.818 48.184 146.924 48.0784C147.029 47.9729 147.147 47.964 147.182 47.964V48.964C147.301 48.964 147.483 48.9337 147.631 48.7856C147.779 48.6374 147.81 48.4557 147.81 48.336H146.81ZM147.182 47.964H140.59V48.964H147.182V47.964ZM140.09 48.464V54.064H141.09V48.464H140.09ZM140.59 54.564H147.182V53.564H140.59V54.564ZM147.182 54.564C147.114 54.564 146.984 54.5373 146.887 54.4163C146.807 54.3167 146.81 54.2241 146.81 54.224H147.81C147.81 54.1172 147.79 53.9447 147.668 53.7917C147.528 53.6173 147.335 53.564 147.182 53.564V54.564ZM146.81 54.224V57.872H147.81V54.224H146.81ZM146.81 57.872C146.81 57.8376 146.818 57.72 146.924 57.6144C147.029 57.5089 147.147 57.5 147.182 57.5V58.5C147.301 58.5 147.483 58.4697 147.631 58.3216C147.779 58.1734 147.81 57.9917 147.81 57.872H146.81ZM147.182 57.5H136.846V58.5H147.182V57.5ZM150.187 57.776L150.687 57.776L150.687 57.7753L150.187 57.776ZM150.155 35.984L149.655 35.984L149.655 35.9847L150.155 35.984ZM153.291 35.728L153.751 35.5309L153.621 35.228H153.291V35.728ZM158.699 48.336L158.239 48.5331L159.199 48.3295L158.699 48.336ZM158.539 35.984H158.039L158.039 35.9905L158.539 35.984ZM162.187 35.984L161.687 35.984L161.687 35.9847L162.187 35.984ZM162.219 57.808L162.719 57.808L162.719 57.8073L162.219 57.808ZM159.243 58L158.791 58.2127L158.926 58.5H159.243V58ZM153.707 46.224L154.159 46.0113L153.207 46.2337L153.707 46.224ZM153.931 57.744H154.431L154.431 57.7343L153.931 57.744ZM150.443 57.5C150.42 57.5 150.495 57.4934 150.58 57.5677C150.678 57.6532 150.687 57.7549 150.687 57.776H149.687C149.687 57.9464 149.739 58.1602 149.922 58.3203C150.092 58.4692 150.296 58.5 150.443 58.5V57.5ZM150.687 57.7753L150.655 35.9833L149.655 35.9847L149.687 57.7767L150.687 57.7753ZM150.655 35.984C150.655 35.9757 150.657 36.0614 150.573 36.1456C150.488 36.2297 150.403 36.228 150.411 36.228V35.228C150.249 35.228 150.035 35.2689 149.865 35.4384C149.696 35.608 149.655 35.8216 149.655 35.984H150.655ZM150.411 36.228H153.291V35.228H150.411V36.228ZM152.831 35.9251L158.239 48.5331L159.159 48.1389L153.751 35.5309L152.831 35.9251ZM159.199 48.3295L159.039 35.9775L158.039 35.9905L158.199 48.3425L159.199 48.3295ZM159.039 35.984C159.039 35.992 159.034 36.0849 158.943 36.1657C158.864 36.2365 158.795 36.228 158.827 36.228V35.228C158.667 35.228 158.454 35.2622 158.279 35.4183C158.092 35.5844 158.039 35.8053 158.039 35.984H159.039ZM158.827 36.228H161.995V35.228H158.827V36.228ZM161.995 36.228C161.972 36.228 161.928 36.2241 161.876 36.2009C161.821 36.1764 161.773 36.1378 161.739 36.092C161.677 36.01 161.687 35.9467 161.687 35.984H162.687C162.687 35.8506 162.665 35.6594 162.539 35.492C162.393 35.2976 162.181 35.228 161.995 35.228V36.228ZM161.687 35.9847L161.719 57.8087L162.719 57.8073L162.687 35.9833L161.687 35.9847ZM161.719 57.808C161.719 57.8069 161.719 57.7881 161.727 57.7582C161.736 57.727 161.755 57.68 161.795 57.6319C161.889 57.5194 162.009 57.5 162.059 57.5V58.5C162.216 58.5 162.416 58.4486 162.563 58.2721C162.696 58.113 162.719 57.9291 162.719 57.808H161.719ZM162.059 57.5H159.243V58.5H162.059V57.5ZM159.695 57.7873L154.159 46.0113L153.255 46.4367L158.791 58.2127L159.695 57.7873ZM153.207 46.2337L153.431 57.7537L154.431 57.7343L154.207 46.2143L153.207 46.2337ZM153.431 57.744C153.431 57.736 153.436 57.6431 153.527 57.5623C153.606 57.4915 153.675 57.5 153.643 57.5V58.5C153.803 58.5 154.016 58.4658 154.191 58.3097C154.378 58.1436 154.431 57.9227 154.431 57.744H153.431ZM153.643 57.5H150.443V58.5H153.643V57.5ZM168.071 39.6H168.571V39.1H168.071V39.6ZM163.751 39.44L163.251 39.4355V39.44H163.751ZM163.783 35.856L164.283 35.8605V35.856H163.783ZM171.911 39.6V39.1H171.41L171.411 39.6009L171.911 39.6ZM171.943 57.84L172.443 57.84L172.443 57.8391L171.943 57.84ZM168.199 57.5C168.266 57.5 168.396 57.5267 168.493 57.6477C168.573 57.7473 168.571 57.8399 168.571 57.84H167.571C167.571 57.9468 167.59 58.1193 167.712 58.2723C167.852 58.4467 168.046 58.5 168.199 58.5V57.5ZM168.571 57.84V39.6H167.571V57.84H168.571ZM168.071 39.1H163.911V40.1H168.071V39.1ZM163.911 39.1C163.934 39.1 164.044 39.1063 164.144 39.2064C164.244 39.3066 164.251 39.4163 164.251 39.44H163.251C163.251 39.5704 163.284 39.76 163.437 39.9136C163.591 40.0671 163.78 40.1 163.911 40.1V39.1ZM164.251 39.4445L164.283 35.8605L163.283 35.8515L163.251 39.4355L164.251 39.4445ZM164.283 35.856C164.283 35.8904 164.274 36.008 164.168 36.1136C164.063 36.2191 163.945 36.228 163.911 36.228V35.228C163.791 35.228 163.609 35.2583 163.461 35.4064C163.313 35.5546 163.283 35.7363 163.283 35.856H164.283ZM163.911 36.228H176.071V35.228H163.911V36.228ZM176.071 36.228C176.071 36.228 175.978 36.2302 175.878 36.1504C175.757 36.0537 175.731 35.9237 175.731 35.856H176.731C176.731 35.703 176.677 35.509 176.503 35.3696C176.35 35.2472 176.178 35.228 176.071 35.228V36.228ZM175.731 35.856V39.44H176.731V35.856H175.731ZM175.731 39.44C175.731 39.4399 175.729 39.3473 175.808 39.2477C175.905 39.1267 176.035 39.1 176.103 39.1V40.1C176.256 40.1 176.45 40.0467 176.589 39.8723C176.712 39.7193 176.731 39.5468 176.731 39.44H175.731ZM176.103 39.1H171.911V40.1H176.103V39.1ZM171.411 39.6009L171.443 57.8409L172.443 57.8391L172.411 39.5991L171.411 39.6009ZM171.443 57.84C171.443 57.8399 171.441 57.7473 171.52 57.6477C171.617 57.5267 171.747 57.5 171.815 57.5V58.5C171.968 58.5 172.162 58.4467 172.301 58.2723C172.424 58.1193 172.443 57.9468 172.443 57.84H171.443ZM171.815 57.5H168.199V58.5H171.815V57.5Z" fill="white" fill-opacity="0.38"/>
<path d="M13.5039 65.0098H11.7695L11.7578 64.1016H13.3691C13.6113 64.1016 13.8262 64.0469 14.0137 63.9375C14.2012 63.8281 14.3477 63.6719 14.4531 63.4688C14.5625 63.2617 14.6172 63.0156 14.6172 62.7305C14.6172 62.418 14.5703 62.1641 14.4766 61.9688C14.3867 61.7695 14.248 61.625 14.0605 61.5352C13.877 61.4414 13.6426 61.3945 13.3574 61.3945H11.998V69H10.9199V60.4688H13.3574C13.7246 60.4688 14.0527 60.5137 14.3418 60.6035C14.6309 60.6895 14.875 60.8262 15.0742 61.0137C15.2773 61.1973 15.4316 61.4316 15.5371 61.7168C15.6426 62.002 15.6953 62.3438 15.6953 62.7422C15.6953 63.0938 15.6152 63.4121 15.4551 63.6973C15.2988 63.9785 15.0801 64.209 14.7988 64.3887C14.5176 64.5684 14.1934 64.6836 13.8262 64.7344L13.5039 65.0098ZM13.4629 69H11.3242L11.9512 68.0801H13.4629C13.7441 68.0801 13.9824 68.0176 14.1777 67.8926C14.373 67.7676 14.5215 67.5918 14.623 67.3652C14.7285 67.1348 14.7812 66.8633 14.7812 66.5508C14.7812 66.2344 14.7383 65.9609 14.6523 65.7305C14.5664 65.5 14.4297 65.3223 14.2422 65.1973C14.0547 65.0723 13.8086 65.0098 13.5039 65.0098H12.1152L12.127 64.1016H14.002L14.2422 64.4297C14.5938 64.4648 14.8887 64.582 15.127 64.7812C15.3691 64.9766 15.5508 65.2266 15.6719 65.5312C15.7969 65.8359 15.8594 66.1719 15.8594 66.5391C15.8594 67.0703 15.7598 67.5195 15.5605 67.8867C15.3652 68.25 15.0879 68.5273 14.7285 68.7188C14.3691 68.9062 13.9473 69 13.4629 69ZM20.2363 61.2246L17.9043 69H16.8027L19.5508 60.4688H20.2422L20.2363 61.2246ZM22.123 69L19.791 61.2246L19.7793 60.4688H20.4766L23.2246 69H22.123ZM22.123 65.8418V66.7676H18.0098V65.8418H22.123ZM29.9746 60.4688V69H28.8906L25.4746 62.4199V69H24.3965V60.4688H25.4746L28.9082 67.0664V60.4688H29.9746ZM36.1094 66.2871H37.1875C37.1602 66.873 37.041 67.3789 36.8301 67.8047C36.623 68.2266 36.3203 68.5508 35.9219 68.7773C35.5273 69.0039 35.0332 69.1172 34.4395 69.1172C34.0137 69.1172 33.6289 69.0332 33.2852 68.8652C32.9414 68.6973 32.6465 68.457 32.4004 68.1445C32.1582 67.8281 31.9727 67.4492 31.8438 67.0078C31.7148 66.5664 31.6504 66.0703 31.6504 65.5195V63.9434C31.6504 63.3965 31.7148 62.9023 31.8438 62.4609C31.9766 62.0195 32.166 61.6426 32.4121 61.3301C32.6621 61.0137 32.9648 60.7715 33.3203 60.6035C33.6797 60.4355 34.0859 60.3516 34.5391 60.3516C35.0938 60.3516 35.5625 60.4629 35.9453 60.6855C36.332 60.9043 36.6289 61.2266 36.8359 61.6523C37.0469 62.0742 37.1641 62.5918 37.1875 63.2051H36.1094C36.082 62.7559 36.0117 62.3906 35.8984 62.1094C35.7852 61.8242 35.6172 61.6152 35.3945 61.4824C35.1758 61.3457 34.8906 61.2773 34.5391 61.2773C34.2266 61.2773 33.9551 61.3398 33.7246 61.4648C33.498 61.5898 33.3105 61.7695 33.1621 62.0039C33.0176 62.2344 32.9082 62.5137 32.834 62.8418C32.7637 63.166 32.7285 63.5293 32.7285 63.9316V65.5195C32.7285 65.8945 32.7578 66.2441 32.8164 66.5684C32.8789 66.8926 32.9766 67.1777 33.1094 67.4238C33.2461 67.666 33.4238 67.8555 33.6426 67.9922C33.8613 68.1289 34.127 68.1973 34.4395 68.1973C34.834 68.1973 35.1465 68.1328 35.377 68.0039C35.6074 67.875 35.7773 67.6699 35.8867 67.3887C36 67.1074 36.0742 66.7402 36.1094 66.2871ZM44.1953 63.9961V65.4785C44.1953 66.0801 44.1289 66.6094 43.9961 67.0664C43.8672 67.5195 43.6777 67.8984 43.4277 68.2031C43.1777 68.5078 42.877 68.7363 42.5254 68.8887C42.1738 69.041 41.7773 69.1172 41.3359 69.1172C40.9102 69.1172 40.5215 69.041 40.1699 68.8887C39.8184 68.7363 39.5156 68.5078 39.2617 68.2031C39.0078 67.8984 38.8105 67.5195 38.6699 67.0664C38.5332 66.6094 38.4648 66.0801 38.4648 65.4785V63.9961C38.4648 63.3945 38.5332 62.8672 38.6699 62.4141C38.8066 61.957 39.002 61.5762 39.2559 61.2715C39.5098 60.9668 39.8125 60.7383 40.1641 60.5859C40.5156 60.4297 40.9043 60.3516 41.3301 60.3516C41.7715 60.3516 42.168 60.4297 42.5195 60.5859C42.875 60.7383 43.1758 60.9668 43.4219 61.2715C43.6719 61.5762 43.8633 61.957 43.9961 62.4141C44.1289 62.8672 44.1953 63.3945 44.1953 63.9961ZM43.1289 65.4785V63.9844C43.1289 63.5156 43.0898 63.1133 43.0117 62.7773C42.9336 62.4375 42.8184 62.1602 42.666 61.9453C42.5137 61.7305 42.3262 61.5723 42.1035 61.4707C41.8809 61.3652 41.623 61.3125 41.3301 61.3125C41.0527 61.3125 40.8027 61.3652 40.5801 61.4707C40.3613 61.5723 40.1738 61.7305 40.0176 61.9453C39.8613 62.1602 39.7402 62.4375 39.6543 62.7773C39.5723 63.1133 39.5312 63.5156 39.5312 63.9844V65.4785C39.5312 65.9512 39.5723 66.3574 39.6543 66.6973C39.7402 67.0332 39.8613 67.3105 40.0176 67.5293C40.1777 67.7441 40.3691 67.9043 40.5918 68.0098C40.8145 68.1113 41.0625 68.1621 41.3359 68.1621C41.6289 68.1621 41.8867 68.1113 42.1094 68.0098C42.3359 67.9043 42.5234 67.7441 42.6719 67.5293C42.8242 67.3105 42.9375 67.0332 43.0117 66.6973C43.0898 66.3574 43.1289 65.9512 43.1289 65.4785ZM50.5527 69H49.0996L49.1113 68.0801H50.5527C51.0645 68.0801 51.4805 67.9824 51.8008 67.7871C52.1211 67.5879 52.3574 67.2949 52.5098 66.9082C52.6621 66.5176 52.7383 66.0352 52.7383 65.4609V64.002C52.7383 63.5488 52.6953 63.1582 52.6094 62.8301C52.5234 62.502 52.3945 62.2324 52.2227 62.0215C52.0508 61.8105 51.834 61.6543 51.5723 61.5527C51.3105 61.4473 51.0039 61.3945 50.6523 61.3945H49.0703V60.4688H50.6523C51.1328 60.4688 51.5664 60.5449 51.9531 60.6973C52.3398 60.8457 52.6719 61.0703 52.9492 61.3711C53.2266 61.668 53.4375 62.0371 53.582 62.4785C53.7305 62.9199 53.8047 63.4316 53.8047 64.0137V65.4609C53.8047 66.043 53.7305 66.5547 53.582 66.9961C53.4375 67.4375 53.2246 67.8066 52.9434 68.1035C52.6621 68.4004 52.3203 68.625 51.918 68.7773C51.5195 68.9258 51.0645 69 50.5527 69ZM49.6973 60.4688V69H48.6191V60.4688H49.6973ZM60.0625 68.0801V69H56.3594V68.0801H60.0625ZM56.5527 60.4688V69H55.4746V60.4688H56.5527ZM59.5645 64.1367V65.0566H56.3594V64.1367H59.5645ZM60.0039 60.4688V61.3945H56.3594V60.4688H60.0039ZM66.7012 60.4688V69H65.6348V60.4688H66.7012ZM68.9453 60.4688V61.3945H63.3965V60.4688H68.9453ZM72.502 61.2246L70.1699 69H69.0684L71.8164 60.4688H72.5078L72.502 61.2246ZM74.3887 69L72.0566 61.2246L72.0449 60.4688H72.7422L75.4902 69H74.3887ZM74.3887 65.8418V66.7676H70.2754V65.8418H74.3887ZM81.0859 68.0801V69H77.5469V68.0801H81.0859ZM77.7402 60.4688V69H76.6621V60.4688H77.7402ZM86.957 68.0801V69H83.2539V68.0801H86.957ZM83.4473 60.4688V69H82.3691V60.4688H83.4473ZM86.459 64.1367V65.0566H83.2539V64.1367H86.459ZM86.8984 60.4688V61.3945H83.2539V60.4688H86.8984ZM93.9121 60.4688V69H92.8281L89.4121 62.4199V69H88.334V60.4688H89.4121L92.8457 67.0664V60.4688H93.9121ZM98.3418 60.4688V69H97.2754V60.4688H98.3418ZM100.586 60.4688V61.3945H95.0371V60.4688H100.586ZM107.23 63.9961V65.4785C107.23 66.0801 107.164 66.6094 107.031 67.0664C106.902 67.5195 106.713 67.8984 106.463 68.2031C106.213 68.5078 105.912 68.7363 105.561 68.8887C105.209 69.041 104.812 69.1172 104.371 69.1172C103.945 69.1172 103.557 69.041 103.205 68.8887C102.854 68.7363 102.551 68.5078 102.297 68.2031C102.043 67.8984 101.846 67.5195 101.705 67.0664C101.568 66.6094 101.5 66.0801 101.5 65.4785V63.9961C101.5 63.3945 101.568 62.8672 101.705 62.4141C101.842 61.957 102.037 61.5762 102.291 61.2715C102.545 60.9668 102.848 60.7383 103.199 60.5859C103.551 60.4297 103.939 60.3516 104.365 60.3516C104.807 60.3516 105.203 60.4297 105.555 60.5859C105.91 60.7383 106.211 60.9668 106.457 61.2715C106.707 61.5762 106.898 61.957 107.031 62.4141C107.164 62.8672 107.23 63.3945 107.23 63.9961ZM106.164 65.4785V63.9844C106.164 63.5156 106.125 63.1133 106.047 62.7773C105.969 62.4375 105.854 62.1602 105.701 61.9453C105.549 61.7305 105.361 61.5723 105.139 61.4707C104.916 61.3652 104.658 61.3125 104.365 61.3125C104.088 61.3125 103.838 61.3652 103.615 61.4707C103.396 61.5723 103.209 61.7305 103.053 61.9453C102.896 62.1602 102.775 62.4375 102.689 62.7773C102.607 63.1133 102.566 63.5156 102.566 63.9844V65.4785C102.566 65.9512 102.607 66.3574 102.689 66.6973C102.775 67.0332 102.896 67.3105 103.053 67.5293C103.213 67.7441 103.404 67.9043 103.627 68.0098C103.85 68.1113 104.098 68.1621 104.371 68.1621C104.664 68.1621 104.922 68.1113 105.145 68.0098C105.371 67.9043 105.559 67.7441 105.707 67.5293C105.859 67.3105 105.973 67.0332 106.047 66.6973C106.125 66.3574 106.164 65.9512 106.164 65.4785ZM112.633 66.8438C112.633 66.6445 112.609 66.4688 112.562 66.3164C112.516 66.1602 112.434 66.0195 112.316 65.8945C112.199 65.7695 112.035 65.6504 111.824 65.5371C111.613 65.4238 111.346 65.3086 111.021 65.1914C110.67 65.0664 110.352 64.9277 110.066 64.7754C109.781 64.6191 109.537 64.4414 109.334 64.2422C109.135 64.043 108.98 63.8145 108.871 63.5566C108.762 63.2988 108.707 63.0039 108.707 62.6719C108.707 62.3398 108.764 62.0332 108.877 61.752C108.994 61.4707 109.158 61.2266 109.369 61.0195C109.584 60.8086 109.842 60.6445 110.143 60.5273C110.443 60.4102 110.779 60.3516 111.15 60.3516C111.705 60.3516 112.172 60.4746 112.551 60.7207C112.934 60.9629 113.223 61.2812 113.418 61.6758C113.613 62.0664 113.711 62.4844 113.711 62.9297H112.633C112.633 62.6094 112.58 62.3262 112.475 62.0801C112.373 61.8301 112.213 61.6348 111.994 61.4941C111.779 61.3496 111.498 61.2773 111.15 61.2773C110.838 61.2773 110.58 61.3379 110.377 61.459C110.178 61.5801 110.029 61.7441 109.932 61.9512C109.838 62.1582 109.791 62.3945 109.791 62.6602C109.791 62.8398 109.822 63.0039 109.885 63.1523C109.947 63.2969 110.043 63.4316 110.172 63.5566C110.305 63.6816 110.469 63.7969 110.664 63.9023C110.863 64.0078 111.098 64.1094 111.367 64.207C111.785 64.3438 112.143 64.4961 112.439 64.6641C112.736 64.832 112.979 65.0215 113.166 65.2324C113.354 65.4395 113.49 65.6758 113.576 65.9414C113.666 66.2031 113.711 66.5 113.711 66.832C113.711 67.1797 113.652 67.4941 113.535 67.7754C113.422 68.0566 113.256 68.2969 113.037 68.4961C112.818 68.6953 112.555 68.8496 112.246 68.959C111.938 69.0645 111.59 69.1172 111.203 69.1172C110.867 69.1172 110.537 69.0625 110.213 68.9531C109.893 68.8438 109.602 68.6797 109.34 68.4609C109.078 68.2422 108.869 67.9727 108.713 67.6523C108.557 67.3281 108.479 66.9531 108.479 66.5273H109.557C109.557 66.8203 109.6 67.0723 109.686 67.2832C109.771 67.4902 109.891 67.6621 110.043 67.7988C110.195 67.9355 110.369 68.0371 110.564 68.1035C110.764 68.166 110.977 68.1973 111.203 68.1973C111.516 68.1973 111.777 68.1426 111.988 68.0332C112.203 67.9238 112.363 67.7676 112.469 67.5645C112.578 67.3613 112.633 67.1211 112.633 66.8438Z" fill="#A52A2A"/>
<path d="M126.236 35V21.1133H124.195V17.8125H131.715V21.1133H129.674V35H126.236ZM131.749 35L133.409 17.8125H139.239L140.87 35H137.618L137.374 32.2266H135.304L135.089 35H131.749ZM135.548 29.4824H137.111L136.359 20.7422H136.202L135.548 29.4824ZM141.725 35V17.8125H145.163V32.0703H148.698V35H141.725ZM149.474 35V17.8125H156.349V21.1328H152.97V24.4824H156.212V27.7148H152.97V31.6504H156.574V35H149.474ZM157.516 35V17.8125H161.052L162.634 26.0449V17.8125H165.954V35H162.595L160.876 26.4062V35H157.516ZM168.752 35V21.1133H166.711V17.8125H174.23V21.1133H172.189V35H168.752Z" fill="#FF0000"/>
<path d="M126.236 35H125.736V35.5H126.236V35ZM126.236 21.1133H126.736V20.6133H126.236V21.1133ZM124.195 21.1133H123.695V21.6133H124.195V21.1133ZM124.195 17.8125V17.3125H123.695V17.8125H124.195ZM131.715 17.8125H132.215V17.3125H131.715V17.8125ZM131.715 21.1133V21.6133H132.215V21.1133H131.715ZM129.674 21.1133V20.6133H129.174V21.1133H129.674ZM129.674 35V35.5H130.174V35H129.674ZM126.736 35V21.1133H125.736V35H126.736ZM126.236 20.6133H124.195V21.6133H126.236V20.6133ZM124.695 21.1133V17.8125H123.695V21.1133H124.695ZM124.195 18.3125H131.715V17.3125H124.195V18.3125ZM131.215 17.8125V21.1133H132.215V17.8125H131.215ZM131.715 20.6133H129.674V21.6133H131.715V20.6133ZM129.174 21.1133V35H130.174V21.1133H129.174ZM129.674 34.5H126.236V35.5H129.674V34.5ZM131.749 35L131.252 34.9519L131.199 35.5H131.749V35ZM133.409 17.8125V17.3125H132.955L132.912 17.7644L133.409 17.8125ZM139.239 17.8125L139.737 17.7653L139.694 17.3125H139.239V17.8125ZM140.87 35V35.5H141.42L141.368 34.9528L140.87 35ZM137.618 35L137.12 35.0438L137.16 35.5H137.618V35ZM137.374 32.2266L137.872 32.1827L137.832 31.7266H137.374V32.2266ZM135.304 32.2266V31.7266H134.841L134.805 32.1879L135.304 32.2266ZM135.089 35V35.5H135.552L135.588 35.0386L135.089 35ZM135.548 29.4824L135.049 29.4451L135.009 29.9824H135.548V29.4824ZM137.111 29.4824V29.9824H137.655L137.609 29.4396L137.111 29.4824ZM136.359 20.7422L136.857 20.6993L136.817 20.2422H136.359V20.7422ZM136.202 20.7422V20.2422H135.738L135.704 20.7049L136.202 20.7422ZM132.247 35.0481L133.907 17.8606L132.912 17.7644L131.252 34.9519L132.247 35.0481ZM133.409 18.3125H139.239V17.3125H133.409V18.3125ZM138.742 17.8597L140.373 35.0472L141.368 34.9528L139.737 17.7653L138.742 17.8597ZM140.87 34.5H137.618V35.5H140.87V34.5ZM138.116 34.9562L137.872 32.1827L136.876 32.2704L137.12 35.0438L138.116 34.9562ZM137.374 31.7266H135.304V32.7266H137.374V31.7266ZM134.805 32.1879L134.591 34.9614L135.588 35.0386L135.802 32.2652L134.805 32.1879ZM135.089 34.5H131.749V35.5H135.089V34.5ZM135.548 29.9824H137.111V28.9824H135.548V29.9824ZM137.609 29.4396L136.857 20.6993L135.86 20.785L136.612 29.5253L137.609 29.4396ZM136.359 20.2422H136.202V21.2422H136.359V20.2422ZM135.704 20.7049L135.049 29.4451L136.047 29.5197L136.701 20.7795L135.704 20.7049ZM141.725 35H141.225V35.5H141.725V35ZM141.725 17.8125V17.3125H141.225V17.8125H141.725ZM145.163 17.8125H145.663V17.3125H145.163V17.8125ZM145.163 32.0703H144.663V32.5703H145.163V32.0703ZM148.698 32.0703H149.198V31.5703H148.698V32.0703ZM148.698 35V35.5H149.198V35H148.698ZM142.225 35V17.8125H141.225V35H142.225ZM141.725 18.3125H145.163V17.3125H141.725V18.3125ZM144.663 17.8125V32.0703H145.663V17.8125H144.663ZM145.163 32.5703H148.698V31.5703H145.163V32.5703ZM148.198 32.0703V35H149.198V32.0703H148.198ZM148.698 34.5H141.725V35.5H148.698V34.5ZM149.474 35H148.974V35.5H149.474V35ZM149.474 17.8125V17.3125H148.974V17.8125H149.474ZM156.349 17.8125H156.849V17.3125H156.349V17.8125ZM156.349 21.1328V21.6328H156.849V21.1328H156.349ZM152.97 21.1328V20.6328H152.47V21.1328H152.97ZM152.97 24.4824H152.47V24.9824H152.97V24.4824ZM156.212 24.4824H156.712V23.9824H156.212V24.4824ZM156.212 27.7148V28.2148H156.712V27.7148H156.212ZM152.97 27.7148V27.2148H152.47V27.7148H152.97ZM152.97 31.6504H152.47V32.1504H152.97V31.6504ZM156.574 31.6504H157.074V31.1504H156.574V31.6504ZM156.574 35V35.5H157.074V35H156.574ZM149.974 35V17.8125H148.974V35H149.974ZM149.474 18.3125H156.349V17.3125H149.474V18.3125ZM155.849 17.8125V21.1328H156.849V17.8125H155.849ZM156.349 20.6328H152.97V21.6328H156.349V20.6328ZM152.47 21.1328V24.4824H153.47V21.1328H152.47ZM152.97 24.9824H156.212V23.9824H152.97V24.9824ZM155.712 24.4824V27.7148H156.712V24.4824H155.712ZM156.212 27.2148H152.97V28.2148H156.212V27.2148ZM152.47 27.7148V31.6504H153.47V27.7148H152.47ZM152.97 32.1504H156.574V31.1504H152.97V32.1504ZM156.074 31.6504V35H157.074V31.6504H156.074ZM156.574 34.5H149.474V35.5H156.574V34.5ZM157.516 35H157.016V35.5H157.516V35ZM157.516 17.8125V17.3125H157.016V17.8125H157.516ZM161.052 17.8125L161.543 17.7181L161.465 17.3125H161.052V17.8125ZM162.634 26.0449L162.143 26.1393L163.134 26.0449H162.634ZM162.634 17.8125V17.3125H162.134V17.8125H162.634ZM165.954 17.8125H166.454V17.3125H165.954V17.8125ZM165.954 35V35.5H166.454V35H165.954ZM162.595 35L162.104 35.0981L162.185 35.5H162.595V35ZM160.876 26.4062L161.366 26.3082L160.376 26.4062H160.876ZM160.876 35V35.5H161.376V35H160.876ZM158.016 35V17.8125H157.016V35H158.016ZM157.516 18.3125H161.052V17.3125H157.516V18.3125ZM160.561 17.9069L162.143 26.1393L163.125 25.9506L161.543 17.7181L160.561 17.9069ZM163.134 26.0449V17.8125H162.134V26.0449H163.134ZM162.634 18.3125H165.954V17.3125H162.634V18.3125ZM165.454 17.8125V35H166.454V17.8125H165.454ZM165.954 34.5H162.595V35.5H165.954V34.5ZM163.085 34.9019L161.366 26.3082L160.385 26.5043L162.104 35.0981L163.085 34.9019ZM160.376 26.4062V35H161.376V26.4062H160.376ZM160.876 34.5H157.516V35.5H160.876V34.5ZM168.752 35H168.252V35.5H168.752V35ZM168.752 21.1133H169.252V20.6133H168.752V21.1133ZM166.711 21.1133H166.211V21.6133H166.711V21.1133ZM166.711 17.8125V17.3125H166.211V17.8125H166.711ZM174.23 17.8125H174.73V17.3125H174.23V17.8125ZM174.23 21.1133V21.6133H174.73V21.1133H174.23ZM172.189 21.1133V20.6133H171.689V21.1133H172.189ZM172.189 35V35.5H172.689V35H172.189ZM169.252 35V21.1133H168.252V35H169.252ZM168.752 20.6133H166.711V21.6133H168.752V20.6133ZM167.211 21.1133V17.8125H166.211V21.1133H167.211ZM166.711 18.3125H174.23V17.3125H166.711V18.3125ZM173.73 17.8125V21.1133H174.73V17.8125H173.73ZM174.23 20.6133H172.189V21.6133H174.23V20.6133ZM171.689 21.1133V35H172.689V21.1133H171.689ZM172.189 34.5H168.752V35.5H172.189V34.5Z" fill="white" fill-opacity="0.38"/>
</g>
<defs>
<clipPath id="clip0_101_8">
<rect width="189" height="104" fill="white"/>
</clipPath>
</defs>
</svg>
